<svg width="50" height="49" viewBox="0 0 50 49" fill="none" xmlns="http://www.w3.org/2000/svg">
                        <path d="M49.2676 41.796H47.9717V15.4829C47.9717 13.5556 46.4033 11.9878 44.4756 11.9878H42.7552C42.9433 11.5942 43.047 11.1577 43.047 10.7041C43.047 9.59957 42.4408 8.59215 41.4649 8.07487L31.8878 3.00162C31.5304 2.81217 31.087 2.9485 30.8978 3.30602C30.7084 3.66344 30.8447 4.1067 31.2021 4.29606L40.7791 9.3692C41.2819 9.63571 41.5821 10.1347 41.5821 10.7041C41.5821 11.2734 41.2819 11.7723 40.7793 12.0387L31.4695 16.9706L25.5508 10.2212C25.2841 9.91696 24.8213 9.88668 24.5172 10.1534C24.2131 10.4201 24.1827 10.8829 24.4494 11.187L30.1393 17.6754L26.6166 19.5415C25.6044 20.0769 24.3959 20.0769 23.384 19.5417L9.2209 12.0389C8.71816 11.7724 8.41787 11.2734 8.41787 10.7042C8.41787 10.1349 8.71807 9.6359 9.2207 9.3694L23.3835 1.86666C24.3957 1.33112 25.6042 1.33112 26.616 1.86647L28.6434 2.94069C29.0008 3.13014 29.4441 2.99391 29.6335 2.63649C29.8229 2.27906 29.6866 1.83571 29.3293 1.64635L27.3016 0.571936C25.8604 -0.190662 24.1395 -0.190662 22.6981 0.572034L8.53486 8.07506C7.55918 8.59225 6.95312 9.59967 6.95312 10.7042C6.95312 11.1578 7.05684 11.5942 7.24492 11.9879H5.52441C3.59668 11.9879 2.02832 13.5557 2.02832 15.483V41.7961H0.732422C0.32793 41.7961 0 42.124 0 42.5285V44.1518C0 46.7711 2.13086 48.902 4.7501 48.902H45.2498C47.869 48.902 50 46.7712 50 44.1518V42.5285C50 42.1239 49.6721 41.796 49.2676 41.796ZM31.3004 29.0893L32.2554 30.7434C32.4527 31.0853 32.3211 31.3872 32.2554 31.501C32.1897 31.6149 31.994 31.8798 31.5992 31.8798H31.0015C30.6066 31.8798 30.4111 31.6149 30.3453 31.501C30.2795 31.3871 30.1479 31.0853 30.3453 30.7434L31.3004 29.0893ZM32.0328 18.3299L35.0635 16.7245V19.633C35.0635 21.7218 33.883 23.5945 32.0328 24.4838V18.3299ZM24.9999 21.4082C25.7904 21.4082 26.5812 21.2174 27.3019 20.8362L30.568 19.106V25.0505C26.5662 26.376 22.1388 26.2272 18.2328 24.6038C16.2304 23.7715 14.9365 21.8204 14.9365 19.6331V16.7244L22.6985 20.8363C23.419 21.2176 24.2094 21.4082 24.9999 21.4082ZM3.49316 15.4829C3.49316 14.3633 4.40439 13.4526 5.52441 13.4526H8.76045L12.4473 15.4057H6.17871C5.77422 15.4057 5.44629 15.7337 5.44629 16.1381V39.1108C5.44629 39.5153 5.77422 39.8432 6.17871 39.8432H10.0449C10.4494 39.8432 10.7773 39.5153 10.7773 39.1108C10.7773 38.7063 10.4494 38.3784 10.0449 38.3784H6.91113V16.8706H13.4717V19.633C13.4717 22.4141 15.1198 24.8962 17.6707 25.9564C19.9996 26.9244 22.4998 27.4084 25.0001 27.4084C26.8804 27.4084 28.7605 27.1344 30.5681 26.587V27.4282L29.0769 30.011C28.6751 30.7068 28.6751 31.5377 29.0769 32.2335C29.4786 32.9293 30.198 33.3447 31.0016 33.3447H31.5993C32.4028 33.3447 33.1223 32.9293 33.524 32.2335C33.9258 31.5377 33.9258 30.7068 33.524 30.011L32.0328 27.4282V26.0753C32.1318 26.0361 32.231 25.9973 32.3294 25.9564C34.8802 24.8962 36.5283 22.4141 36.5283 19.633V16.8706H43.0889V38.3784H12.9746C12.5701 38.3784 12.2422 38.7063 12.2422 39.1108C12.2422 39.5153 12.5701 39.8432 12.9746 39.8432H43.8213C44.2258 39.8432 44.5537 39.5153 44.5537 39.1108V16.1381C44.5537 15.7337 44.2258 15.4057 43.8213 15.4057H37.5526L41.2395 13.4526H44.4755C45.5955 13.4526 46.5067 14.3633 46.5067 15.4829V41.796H3.49316V15.4829ZM29.5293 43.2612C29.2587 44.0488 28.5104 44.6165 27.6321 44.6165H22.368C21.4896 44.6165 20.7414 44.0488 20.4707 43.2612H29.5293ZM48.5352 44.1517C48.5352 45.9632 47.0613 47.4371 45.2498 47.4371H4.7501C2.93857 47.4371 1.46484 45.9632 1.46484 44.1517V43.2608H2.75322C2.75576 43.2608 2.7582 43.2612 2.76074 43.2612H18.9597C19.2649 44.8649 20.6767 46.0813 22.368 46.0813H27.6321C29.3233 46.0813 30.7351 44.8648 31.0403 43.2612H47.2393C47.2418 43.2612 47.2442 43.2608 47.2468 43.2608H48.5352V44.1517Z" fill="white"></path>
                        <path d="M25.2212 35.6928C25.2212 35.2883 24.8933 34.9604 24.4888 34.9604H9.82617C9.42168 34.9604 9.09375 35.2883 9.09375 35.6928C9.09375 36.0973 9.42168 36.4253 9.82617 36.4253H24.4889C24.8933 36.4253 25.2212 36.0973 25.2212 35.6928Z" fill="white"></path>
                        <path d="M9.82617 33.3448H19.6299C20.0344 33.3448 20.3623 33.0169 20.3623 32.6124C20.3623 32.2079 20.0344 31.8799 19.6299 31.8799H9.82617C9.42168 31.8799 9.09375 32.2079 9.09375 32.6124C9.09375 33.0169 9.42158 33.3448 9.82617 33.3448Z" fill="white"></path>
                        </svg>