<svg width="50" height="50" viewBox="0 0 50 50" fill="none" xmlns="http://www.w3.org/2000/svg">
                           <path d="M6.978 32.4385C6.64195 32.4385 6.31967 32.305 6.08205 32.0674C5.84443 31.8298 5.71094 31.5075 5.71094 31.1714V22.1331C5.71094 21.797 5.84443 21.4747 6.08205 21.2371C6.31967 20.9995 6.64195 20.866 6.978 20.866C7.31405 20.866 7.63633 20.9995 7.87395 21.2371C8.11157 21.4747 8.24506 21.797 8.24506 22.1331V31.1714C8.24506 31.5075 8.11157 31.8298 7.87395 32.0674C7.63633 32.305 7.31405 32.4385 6.978 32.4385Z" fill="white"></path>
                           <path d="M12.687 12.2567C11.4749 12.2567 10.29 11.8973 9.28222 11.2239C8.27442 10.5505 7.48893 9.5934 7.02509 8.47359C6.56125 7.35378 6.43989 6.12157 6.67635 4.93278C6.91282 3.74399 7.49649 2.65202 8.35355 1.79496C9.21062 0.937891 10.3026 0.354222 11.4914 0.117757C12.6802 -0.118707 13.9124 0.00265538 15.0322 0.466497C16.152 0.930338 17.1091 1.71583 17.7825 2.72363C18.4559 3.73143 18.8153 4.91629 18.8153 6.12837C18.8135 7.75316 18.1673 9.31089 17.0184 10.4598C15.8695 11.6087 14.3118 12.2549 12.687 12.2567ZM12.687 2.53413C11.9761 2.53413 11.2812 2.74493 10.6901 3.13987C10.099 3.53481 9.63836 4.09615 9.36632 4.75291C9.09428 5.40967 9.0231 6.13235 9.16178 6.82957C9.30047 7.52678 9.64279 8.16721 10.1454 8.66987C10.6481 9.17254 11.2885 9.51485 11.9858 9.65354C12.683 9.79222 13.4057 9.72105 14.0624 9.44901C14.7192 9.17697 15.2805 8.71628 15.6755 8.12522C16.0704 7.53415 16.2812 6.83924 16.2812 6.12837C16.2801 5.17546 15.901 4.2619 15.2272 3.58809C14.5534 2.91428 13.6399 2.53525 12.687 2.53413Z" fill="white"></path>
                           <path d="M32.6663 21.736C32.4217 21.7362 32.1822 21.6655 31.9768 21.5325C31.7714 21.3995 31.609 21.2099 31.509 20.9866C31.409 20.7633 31.3759 20.5158 31.4135 20.2741C31.4512 20.0323 31.558 19.8066 31.7211 19.6243L38.6055 11.907C38.7164 11.7828 38.8507 11.6817 39.0007 11.6094C39.1507 11.5371 39.3135 11.4951 39.4797 11.4857C39.646 11.4764 39.8125 11.4998 39.9696 11.5548C40.1268 11.6098 40.2716 11.6951 40.3958 11.8061C40.52 11.917 40.6211 12.0513 40.6934 12.2013C40.7657 12.3513 40.8077 12.5141 40.8171 12.6803C40.8265 12.8466 40.803 13.0131 40.748 13.1702C40.6931 13.3274 40.6077 13.4722 40.4968 13.5964L33.6124 21.3095C33.4937 21.4433 33.3481 21.5505 33.185 21.6241C33.022 21.6976 32.8452 21.7357 32.6663 21.736Z" fill="white"></path>
                           <path d="M46.1996 33.1776H23.466C23.1299 33.1776 22.8077 33.0441 22.57 32.8065C22.3324 32.5689 22.1989 32.2466 22.1989 31.9106C22.1989 31.5745 22.3324 31.2522 22.57 31.0146C22.8077 30.777 23.1299 30.6435 23.466 30.6435H46.1996C46.5357 30.6435 46.858 30.51 47.0956 30.2724C47.3332 30.0348 47.4667 29.7125 47.4667 29.3764V3.82991C47.4667 3.49386 47.3332 3.17158 47.0956 2.93396C46.858 2.69634 46.5357 2.56284 46.1996 2.56284H21.3432C21.0072 2.56284 20.6849 2.42935 20.4473 2.19173C20.2097 1.95411 20.0762 1.63183 20.0762 1.29578C20.0762 0.959734 20.2097 0.637452 20.4473 0.399831C20.6849 0.162211 21.0072 0.028717 21.3432 0.028717H46.1996C47.2078 0.028717 48.1746 0.429199 48.8875 1.14206C49.6003 1.85492 50.0008 2.82177 50.0008 3.82991V29.3764C50.0008 30.3846 49.6003 31.3514 48.8875 32.0643C48.1746 32.7771 47.2078 33.1776 46.1996 33.1776Z" fill="white"></path>
                           <path d="M12.6874 50.0009H6.978C6.64195 50.0009 6.31967 49.8674 6.08205 49.6297C5.84443 49.3921 5.71094 49.0698 5.71094 48.7338V31.1715C5.71094 30.8354 5.84443 30.5131 6.08205 30.2755C6.31967 30.0379 6.64195 29.9044 6.978 29.9044C7.31405 29.9044 7.63633 30.0379 7.87395 30.2755C8.11157 30.5131 8.24506 30.8354 8.24506 31.1715V47.4667H12.6874C13.0234 47.4667 13.3457 47.6002 13.5833 47.8378C13.821 48.0755 13.9544 48.3977 13.9544 48.7338C13.9544 49.0698 13.821 49.3921 13.5833 49.6297C13.3457 49.8674 13.0234 50.0009 12.6874 50.0009Z" fill="white"></path>
                           <path d="M18.3969 50.0008H12.6867C12.3506 50.0008 12.0284 49.8673 11.7907 49.6297C11.5531 49.3921 11.4196 49.0698 11.4196 48.7338V31.9106C11.4196 31.5745 11.5531 31.2522 11.7907 31.0146C12.0284 30.777 12.3506 30.6435 12.6867 30.6435C13.0227 30.6435 13.345 30.777 13.5826 31.0146C13.8203 31.2522 13.9537 31.5745 13.9537 31.9106V47.4667H17.1299V23.5108C17.1298 22.9849 17.2857 22.4708 17.5778 22.0336C17.87 21.5963 18.2852 21.2555 18.7711 21.0543C19.2569 20.8531 19.7916 20.8006 20.3073 20.9033C20.823 21.006 21.2967 21.2593 21.6685 21.6313L23.6544 23.6147C23.8015 23.7625 23.9765 23.8797 24.1692 23.9594C24.3619 24.0392 24.5685 24.0799 24.777 24.0793H30.6739C30.8853 24.0793 31.0945 24.0372 31.2893 23.9553C31.4842 23.8734 31.6607 23.7535 31.8086 23.6025C31.9565 23.4516 32.0728 23.2726 32.1507 23.0761C32.2285 22.8796 32.2663 22.6696 32.262 22.4583C32.2442 21.6009 31.5068 20.904 30.6182 20.904H25.9562C25.6203 20.9037 25.2982 20.77 25.0608 20.5323L22.3333 17.8056C21.8384 17.3079 21.2497 16.9133 20.6013 16.6448C19.9528 16.3762 19.2576 16.2391 18.5557 16.2412H17.5725L15.6575 17.8335C14.8233 18.5268 13.7727 18.9064 12.6879 18.9064C11.6032 18.9064 10.5526 18.5268 9.71837 17.8335L7.80173 16.2412H6.97729C5.7993 16.2425 4.66995 16.7111 3.83698 17.5441C3.00402 18.377 2.53547 19.5064 2.53413 20.6844C2.53413 21.0204 2.40063 21.3427 2.16301 21.5803C1.92539 21.8179 1.60311 21.9514 1.26706 21.9514C0.931017 21.9514 0.608734 21.8179 0.371114 21.5803C0.133493 21.3427 0 21.0204 0 20.6844C0.00201232 18.8345 0.737764 17.061 2.04582 15.7529C3.35389 14.4448 5.12742 13.7091 6.97729 13.7071H8.25956C8.55553 13.7072 8.84213 13.8109 9.06964 14.0002L11.3368 15.8847C11.7163 16.2008 12.1945 16.3739 12.6884 16.3739C13.1822 16.3739 13.6604 16.2008 14.0399 15.8847L16.3054 13.9994C16.5329 13.81 16.8195 13.7063 17.1155 13.7062H18.5574C19.5921 13.7034 20.6171 13.9058 21.5731 14.3018C22.529 14.6978 23.397 15.2794 24.1266 16.0131L26.4833 18.3699H30.6224C32.8811 18.3699 34.7547 20.1809 34.7995 22.4076C34.8106 22.9558 34.7122 23.5008 34.5101 24.0106C34.308 24.5203 34.0062 24.9846 33.6224 25.3763C33.2386 25.768 32.7805 26.0791 32.2749 26.2916C31.7694 26.504 31.2265 26.6134 30.6781 26.6134H24.7736C24.2322 26.6149 23.6958 26.509 23.1956 26.3018C22.6953 26.0946 22.2412 25.7902 21.8594 25.4063L19.8768 23.4212C19.8606 23.4052 19.8404 23.3938 19.8182 23.3883C19.7961 23.3828 19.7728 23.3834 19.751 23.39C19.7263 23.3983 19.7048 23.4142 19.6896 23.4355C19.6745 23.4567 19.6664 23.4821 19.6665 23.5082V48.7312C19.6668 48.8981 19.6342 49.0633 19.5705 49.2175C19.5069 49.3717 19.4134 49.5118 19.2954 49.6297C19.1774 49.7477 19.0373 49.8412 18.8832 49.9049C18.729 49.9686 18.5637 50.0012 18.3969 50.0008Z" fill="white"></path>
                           <path d="M4.12218 35.2936C3.02925 35.2925 1.98141 34.8578 1.20859 34.085C0.435777 33.3122 0.00111808 32.2644 0 31.1714V20.6835C0 20.3475 0.133493 20.0252 0.371114 19.7876C0.608734 19.55 0.931017 19.4165 1.26706 19.4165C1.60311 19.4165 1.92539 19.55 2.16301 19.7876C2.40063 20.0252 2.53413 20.3475 2.53413 20.6835V31.1714C2.53413 31.5926 2.70144 31.9965 2.99926 32.2944C3.29707 32.5922 3.701 32.7595 4.12218 32.7595C4.54336 32.7595 4.94728 32.5922 5.2451 32.2944C5.54292 31.9965 5.71023 31.5926 5.71023 31.1714C5.71023 30.8354 5.84372 30.5131 6.08135 30.2755C6.31897 30.0379 6.64125 29.9044 6.97729 29.9044C7.31334 29.9044 7.63562 30.0379 7.87324 30.2755C8.11086 30.5131 8.24436 30.8354 8.24436 31.1714C8.24324 32.2644 7.80858 33.3122 7.03576 34.085C6.26295 34.8578 5.21511 35.2925 4.12218 35.2936Z" fill="white"></path>
                           <path d="M39.8722 50.0009H1.26902C0.93297 50.0009 0.610687 49.8674 0.373067 49.6298C0.135447 49.3921 0.00195312 49.0698 0.00195312 48.7338C0.00195312 48.3978 0.135447 48.0755 0.373067 47.8379C0.610687 47.6002 0.93297 47.4667 1.26902 47.4667H39.8722C40.2083 47.4667 40.5305 47.6002 40.7682 47.8379C41.0058 48.0755 41.1393 48.3978 41.1393 48.7338C41.1393 49.0698 41.0058 49.3921 40.7682 49.6298C40.5305 49.8674 40.2083 50.0009 39.8722 50.0009Z" fill="white"></path>
                           <path d="M32.9809 14.018H26.4116C26.0755 14.018 25.7533 13.8845 25.5156 13.6468C25.278 13.4092 25.1445 13.0869 25.1445 12.7509C25.1445 12.4148 25.278 12.0926 25.5156 11.8549C25.7533 11.6173 26.0755 11.4838 26.4116 11.4838H32.9809C33.3169 11.4838 33.6392 11.6173 33.8768 11.8549C34.1145 12.0926 34.248 12.4148 34.248 12.7509C34.248 13.0869 34.1145 13.4092 33.8768 13.6468C33.6392 13.8845 33.3169 14.018 32.9809 14.018Z" fill="white"></path>
                           <path d="M39.5502 8.28998H26.4116C26.0755 8.28998 25.7533 8.15649 25.5156 7.91887C25.278 7.68125 25.1445 7.35897 25.1445 7.02292C25.1445 6.68688 25.278 6.36459 25.5156 6.12697C25.7533 5.88935 26.0755 5.75586 26.4116 5.75586H39.5502C39.8862 5.75586 40.2085 5.88935 40.4461 6.12697C40.6838 6.36459 40.8173 6.68688 40.8173 7.02292C40.8173 7.35897 40.6838 7.68125 40.4461 7.91887C40.2085 8.15649 39.8862 8.28998 39.5502 8.28998Z" fill="white"></path>
                        </svg>