<svg width="50" height="50" viewBox="0 0 50 50" fill="none" xmlns="http://www.w3.org/2000/svg">
                           <path d="M4.54545 0C2.04694 0 0 2.04694 0 4.54545V11.3636H2.27273H47.7273V34.0909C47.7273 35.3697 46.7333 36.3636 45.4545 36.3636H28.3913C28.4019 36.1693 28.4091 35.9746 28.4091 35.7799C28.4091 31.6373 26.035 27.9221 22.421 26.1275C23.3212 25.0458 23.8636 23.6571 23.8636 22.148C23.8636 18.7152 21.0547 15.9091 17.6203 15.9091C14.1859 15.9091 11.3747 18.7152 11.3747 22.148C11.3747 23.6572 11.9188 25.0457 12.8196 26.1275C9.20574 27.9224 6.82928 31.6373 6.82928 35.7799C6.82928 35.9747 6.83622 36.1693 6.84703 36.3636H4.54545C3.26671 36.3636 2.27273 35.3697 2.27273 34.0909V13.6364H0V34.0909C0 36.5894 2.04694 38.6364 4.54545 38.6364H45.4545C47.9531 38.6364 50 36.5894 50 34.0909V4.54545C50 2.04694 47.9531 0 45.4545 0H4.54545ZM4.54545 2.27273H45.4545C46.7333 2.27273 47.7273 3.26671 47.7273 4.54545V9.09091H2.27273V4.54545C2.27273 3.26671 3.26671 2.27273 4.54545 2.27273ZM17.6203 18.1818C19.8276 18.1818 21.5909 19.9447 21.5909 22.148C21.5909 24.3513 19.8276 26.1142 17.6203 26.1142C15.413 26.1142 13.6475 24.3513 13.6475 22.148C13.6475 19.9447 15.413 18.1818 17.6203 18.1818ZM14.8526 27.7366C15.6882 28.1526 16.6279 28.3869 17.6203 28.3869C18.6127 28.3869 19.5527 28.1526 20.388 27.7366C23.8151 28.9109 26.1364 32.1261 26.1364 35.7799C26.1364 35.9748 26.1277 36.1693 26.1142 36.3636H9.1242C9.11064 36.1693 9.10201 35.9749 9.10201 35.7799C9.10201 32.1254 11.4252 28.9104 14.8526 27.7366Z" fill="white"></path>
                           <path d="M11.3636 40.9091C9.2592 40.9091 7.47855 42.3659 6.96911 44.3182H0V46.5909H6.96911C7.47855 48.5432 9.2592 50 11.3636 50C13.4687 50 15.2538 48.5441 15.7626 46.5909H50V44.3182H15.7626C15.2538 42.365 13.4687 40.9091 11.3636 40.9091ZM11.3636 43.1818C12.6323 43.1818 13.6364 44.1859 13.6364 45.4545C13.6364 46.7232 12.6323 47.7273 11.3636 47.7273C10.095 47.7273 9.09091 46.7232 9.09091 45.4545C9.09091 44.1859 10.095 43.1818 11.3636 43.1818Z" fill="white"></path>
                           <path d="M33.5074 16.0511C33.3343 15.9548 33.139 15.9054 32.941 15.9079C32.7429 15.9103 32.549 15.9644 32.3783 16.0649C32.2076 16.1654 32.0661 16.3087 31.9679 16.4807C31.8697 16.6527 31.8181 16.8474 31.8184 17.0455V28.4091C31.8181 28.6072 31.8697 28.8018 31.9679 28.9738C32.0661 29.1458 32.2076 29.2892 32.3783 29.3897C32.549 29.4901 32.7429 29.5443 32.941 29.5467C33.139 29.5491 33.3343 29.4997 33.5074 29.4034L43.7346 23.7216C43.9122 23.6233 44.0602 23.4792 44.1633 23.3044C44.2664 23.1295 44.3208 22.9302 44.3208 22.7273C44.3208 22.5243 44.2664 22.325 44.1633 22.1502C44.0602 21.9753 43.9122 21.8312 43.7346 21.733L33.5074 16.0511ZM34.0911 18.9786L40.8405 22.7273L34.0911 26.4782V18.9786Z" fill="white" fill-opacity="0.999"></path>
                           <path d="M43.1816 4.54544V6.81817H45.4544V4.54544H43.1816Z" fill="white"></path>
                           <path d="M38.6367 4.54544V6.81817H40.9094V4.54544H38.6367Z" fill="white"></path>
                           <path d="M34.0918 4.54544V6.81817H36.3645V4.54544H34.0918Z" fill="white"></path>
                           <path d="M29.5449 4.54544V6.81817H31.8176V4.54544H29.5449Z" fill="white"></path>
                        </svg>