<svg width="39" height="55" viewBox="0 0 39 55" fill="none" xmlns="http://www.w3.org/2000/svg">
                             <path d="M36.3409 36.3276V30.602L33.9238 31.5421L33.9167 31.5262L33.8591 31.4216C32.9328 29.98 31.4349 28.977 29.7481 28.6713L23.9318 27.6134V27.1544C26.107 25.8918 27.6998 23.7379 28.1961 21.1914C29.8075 20.8582 31.0227 19.4291 31.0227 17.7208V8.96937C31.0227 6.49644 29.4025 4.33982 27.0518 3.63808L26.6086 3.19506C24.547 1.13413 21.8063 0 18.8911 0C12.8735 0 7.97727 4.89359 7.97727 10.9098V17.7208C7.97727 19.4291 9.19248 20.8582 10.8039 21.1914C11.3011 23.7379 12.893 25.8927 15.0682 27.1544V27.6134L9.25275 28.6705C7.56777 28.9761 6.0707 29.9774 5.14357 31.4181L5.09039 31.5474L2.65909 30.602V36.3276C1.19305 36.3276 0 37.5202 0 38.9857V42.5299C0 43.9954 1.19305 45.188 2.65909 45.188V48.4522L19.5 55L36.3409 48.4522V45.188C37.807 45.188 39 43.9954 39 42.5299V38.9857C39 37.5202 37.807 36.3276 36.3409 36.3276ZM25.5929 29.7169L29.4308 30.4142C30.5609 30.6197 31.5616 31.2719 32.2291 32.2004L23.6535 35.5337L25.5929 29.7169ZM16.9162 27.9669C17.7344 28.2168 18.6012 28.3533 19.5 28.3533C20.3988 28.3533 21.2656 28.2168 22.0837 27.9669L19.5 29.9038L16.9162 27.9669ZM18.151 31.1071L16.3419 32.9146L15.1683 29.3961L15.733 29.2942L18.151 31.1071ZM23.267 29.2951L23.8317 29.397L22.6581 32.9155L20.849 31.108L23.267 29.2951ZM28.3636 19.2465V16.195C28.891 16.5025 29.25 17.0678 29.25 17.7208C29.25 18.3738 28.891 18.9391 28.3636 19.2465ZM10.6364 19.2465C10.109 18.9391 9.75 18.3738 9.75 17.7208C9.75 17.0678 10.109 16.5025 10.6364 16.195V19.2465ZM10.6364 13.2906V14.3024C10.3208 14.3848 10.0248 14.5089 9.75 14.6693V10.9098C9.75 5.87178 13.8503 1.77208 18.8911 1.77208C21.3321 1.77208 23.6287 2.7228 25.3553 4.4488L26.1371 5.23118L26.3755 5.28965C28.0685 5.71229 29.25 7.22565 29.25 8.96937V14.6693C28.9752 14.5089 28.6792 14.384 28.3636 14.3024V13.2906H25.553C23.1509 13.2906 20.8552 12.1441 19.4149 10.224L18.7103 9.28303L16.949 11.0445C15.499 12.4932 13.572 13.2906 11.5227 13.2906H10.6364ZM12.4091 19.4929V15.0219C14.5975 14.819 16.6282 13.8701 18.2024 12.2973L18.5472 11.9527C20.3243 13.9135 22.8841 15.0627 25.553 15.0627H26.5909V19.4929C26.5909 23.4012 23.4097 26.5812 19.5 26.5812C15.5903 26.5812 12.4091 23.4012 12.4091 19.4929ZM9.56918 30.4142L13.4071 29.7169L15.3465 35.5337L6.76916 32.1996C7.43659 31.2701 8.43907 30.6197 9.56918 30.4142ZM1.77273 42.5299V38.9857C1.77273 38.4966 2.1707 38.0997 2.65909 38.0997C4.12514 38.0997 5.31818 39.2923 5.31818 40.7578C5.31818 42.2233 4.12514 43.4159 2.65909 43.4159C2.1707 43.4159 1.77273 43.019 1.77273 42.5299ZM18.6136 52.753L4.43182 47.241V44.8123C5.99448 44.1265 7.09091 42.5698 7.09091 40.7578C7.09091 38.9459 5.99448 37.3891 4.43182 36.7033V33.1928L18.6136 38.7057V52.753ZM15.982 35.7818L19.5 32.2642L23.018 35.7809L19.5 37.149L15.982 35.7818ZM34.5682 47.2401L20.3864 52.7521V38.7057L34.5682 33.1928V36.7033C33.0055 37.3891 31.9091 38.9459 31.9091 40.7578C31.9091 42.5698 33.0055 44.1265 34.5682 44.8123V47.2401ZM37.2273 42.5299C37.2273 43.019 36.8293 43.4159 36.3409 43.4159C34.8749 43.4159 33.6818 42.2233 33.6818 40.7578C33.6818 39.2923 34.8749 38.0997 36.3409 38.0997C36.8293 38.0997 37.2273 38.4966 37.2273 38.9857V42.5299Z" fill="white"></path>
                        </svg>