<svg width="80" height="80" viewBox="0 0 80 80" fill="none" xmlns="http://www.w3.org/2000/svg">
  <!-- Document/Paper base -->
  <path d="M15 10C15 8.34315 16.3431 7 18 7H50L65 22V70C65 71.6569 63.6569 73 62 73H18C16.3431 73 15 71.6569 15 70V10Z" fill="#FF4D4F" fill-opacity="0.1" stroke="#FF4D4F" stroke-width="2"/>
  
  <!-- Folded corner -->
  <path d="M50 7V19C50 20.6569 51.3431 22 53 22H65L50 7Z" fill="#FF4D4F" fill-opacity="0.2" stroke="#FF4D4F" stroke-width="2" stroke-linejoin="round"/>
  
  <!-- Checkmark 1 -->
  <path d="M23 30L27 34L35 26" stroke="#FF4D4F" stroke-width="2.5" stroke-linecap="round" stroke-linejoin="round"/>
  
  <!-- Checkmark 2 -->
  <path d="M23 45L27 49L35 41" stroke="#FF4D4F" stroke-width="2.5" stroke-linecap="round" stroke-linejoin="round"/>
  
  <!-- X mark (challenge) -->
  <path d="M23 57L31 65M31 57L23 65" stroke="#FF4D4F" stroke-width="2.5" stroke-linecap="round"/>
  
  <!-- Text lines next to checkmarks -->
  <line x1="40" y1="30" x2="57" y2="30" stroke="#FF4D4F" stroke-width="2" stroke-linecap="round"/>
  <line x1="40" y1="45" x2="57" y2="45" stroke="#FF4D4F" stroke-width="2" stroke-linecap="round"/>
  <line x1="40" y1="61" x2="57" y2="61" stroke="#FF4D4F" stroke-width="2" stroke-linecap="round"/>
  
  <!-- Strategy symbol - arrows forming cycle in corner -->
  <g transform="translate(52, 52)">
    <path d="M0 8 Q0 0 8 0 L12 0 M12 0 L9 -3 M12 0 L9 3" stroke="#FF4D4F" stroke-width="1.5" stroke-linecap="round" stroke-linejoin="round" fill="none"/>
    <path d="M16 0 Q16 8 8 8 L4 8 M4 8 L7 5 M4 8 L7 11" stroke="#FF4D4F" stroke-width="1.5" stroke-linecap="round" stroke-linejoin="round" fill="none"/>
  </g>
  
  <!-- Challenge indicator - exclamation mark -->
  <circle cx="58" cy="17" r="5" fill="#FF4D4F"/>
  <path d="M58 14V17M58 19V19.5" stroke="white" stroke-width="1.5" stroke-linecap="round"/>
</svg>