<svg width="84" height="81" viewBox="0 0 84 81" fill="none" xmlns="http://www.w3.org/2000/svg">
                        <path d="M11.2268 7.22153C10.8144 7.22153 10.4189 7.38535 10.1273 7.67695C9.8357 7.96855 9.67188 8.36405 9.67188 8.77643C9.67188 9.18882 9.8357 9.58432 10.1273 9.87592C10.4189 10.1675 10.8144 10.3313 11.2268 10.3313C11.6392 10.3313 12.0347 10.1675 12.3263 9.87592C12.6179 9.58432 12.7817 9.18882 12.7817 8.77643C12.7817 8.36405 12.6179 7.96855 12.3263 7.67695C12.0347 7.38535 11.6392 7.22153 11.2268 7.22153Z" fill="#F92596"></path>
                        <path d="M16.9319 7.22153C16.6243 7.22153 16.3237 7.31272 16.068 7.48357C15.8123 7.65443 15.613 7.89727 15.4953 8.1814C15.3776 8.46552 15.3468 8.77816 15.4068 9.07978C15.4668 9.3814 15.6149 9.65846 15.8324 9.87592C16.0498 10.0934 16.3269 10.2415 16.6285 10.3015C16.9301 10.3615 17.2428 10.3307 17.5269 10.213C17.811 10.0953 18.0539 9.896 18.2247 9.64029C18.3956 9.38459 18.4868 9.08397 18.4868 8.77643C18.4868 8.36405 18.3229 7.96855 18.0313 7.67695C17.7397 7.38535 17.3442 7.22153 16.9319 7.22153Z" fill="#F92596"></path>
                        <path d="M22.6389 7.22153C22.3314 7.22153 22.0307 7.31272 21.775 7.48357C21.5193 7.65443 21.32 7.89727 21.2023 8.1814C21.0847 8.46552 21.0539 8.77816 21.1139 9.07978C21.1739 9.3814 21.322 9.65846 21.5394 9.87592C21.7569 10.0934 22.0339 10.2415 22.3355 10.3015C22.6372 10.3615 22.9498 10.3307 23.2339 10.213C23.5181 10.0953 23.7609 9.896 23.9318 9.64029C24.1026 9.38459 24.1938 9.08397 24.1938 8.77643C24.1938 8.36405 24.03 7.96855 23.7384 7.67695C23.4468 7.38535 23.0513 7.22153 22.6389 7.22153Z" fill="#F92596"></path>
                        <path d="M62.4917 80.24H68.2915C69.2017 80.2359 70.0733 79.8725 70.7169 79.229C71.3605 78.5854 71.7238 77.7138 71.7279 76.8036V73.7871H75.7551C77.9312 73.783 80.0171 72.9167 81.5558 71.378C83.0946 69.8392 83.9609 67.7534 83.965 65.5772V8.4499C83.965 6.2725 83.1 4.18427 81.5604 2.64462C80.0207 1.10496 77.9325 0.23999 75.7551 0.23999H8.20991C6.03251 0.23999 3.94429 1.10496 2.40463 2.64462C0.864971 4.18427 0 6.2725 0 8.4499V65.5772C0.00410982 67.7534 0.8704 69.8392 2.40917 71.378C3.94793 72.9167 6.03377 73.783 8.20991 73.7871H12.2371V76.8036C12.2412 77.7138 12.6046 78.5854 13.2481 79.229C13.8917 79.8725 14.7634 80.2359 15.6735 80.24H21.4733C21.928 80.2398 22.378 80.1489 22.7972 79.9727C23.2164 79.7965 23.5962 79.5385 23.9145 79.2138C24.2263 78.8956 24.4721 78.5188 24.6375 78.1051C24.803 77.6915 24.8849 77.2491 24.8785 76.8036V73.7871H27.8173V76.8036C27.8213 77.7111 28.1826 78.5804 28.8228 79.2235C29.463 79.8667 30.3307 80.2318 31.2381 80.24H37.0535C37.9636 80.2359 38.8352 79.8725 39.4788 79.229C40.1223 78.5854 40.4857 77.7138 40.4898 76.8036V73.7871H43.413V76.8036C43.4171 77.7138 43.7805 78.5854 44.424 79.229C45.0676 79.8725 45.9393 80.2359 46.8494 80.24H52.6647C53.1192 80.238 53.5687 80.1464 53.9876 79.9703C54.4066 79.7942 54.7866 79.5371 55.1059 79.2138C55.4227 78.8984 55.6727 78.5225 55.841 78.1084C56.0093 77.6943 56.0925 77.2506 56.0855 76.8036V73.7871H59.0865V76.8036C59.0905 77.7084 59.4496 78.5755 60.0864 79.2181C60.7233 79.8608 61.587 80.2278 62.4917 80.24ZM68.6181 76.8036C68.6181 76.8903 68.5837 76.9733 68.5224 77.0345C68.4612 77.0958 68.3781 77.1302 68.2915 77.1302H62.4917C62.4051 77.1302 62.3221 77.0958 62.2608 77.0345C62.1996 76.9733 62.1652 76.8903 62.1652 76.8036V40.0145C62.1652 39.9279 62.1996 39.8449 62.2608 39.7836C62.3221 39.7224 62.4051 39.688 62.4917 39.688H68.2915C68.3781 39.688 68.4612 39.7224 68.5224 39.7836C68.5837 39.8449 68.6181 39.9279 68.6181 40.0145V76.8036ZM21.7687 76.8036C21.7712 76.8447 21.764 76.8857 21.7478 76.9235C21.7316 76.9613 21.7068 76.9948 21.6754 77.0213C21.6459 77.0543 21.6101 77.081 21.57 77.0997C21.5299 77.1184 21.4864 77.1288 21.4422 77.1302H15.6735C15.5869 77.1302 15.5038 77.0958 15.4426 77.0345C15.3813 76.9733 15.3469 76.8903 15.3469 76.8036V72.2322V65.1107C15.3469 65.0241 15.3813 64.9411 15.4426 64.8799C15.5038 64.8186 15.5869 64.7842 15.6735 64.7842H21.4733C21.5544 64.792 21.6297 64.8298 21.6843 64.8902C21.739 64.9506 21.7691 65.0293 21.7687 65.1107V76.8036ZM37.3178 76.8036C37.3178 76.8903 37.2834 76.9733 37.2221 77.0345C37.1609 77.0958 37.0779 77.1302 36.9913 77.1302H31.2692C31.1853 77.1262 31.1062 77.09 31.0483 77.0292C30.9904 76.9684 30.9581 76.8876 30.9582 76.8036V51.7852C30.9561 51.7423 30.9625 51.6994 30.977 51.659C30.9915 51.6186 31.0139 51.5814 31.0427 51.5496C31.0716 51.5179 31.1065 51.4921 31.1454 51.4738C31.1842 51.4555 31.2263 51.4451 31.2692 51.4431H37.0845C37.1726 51.4471 37.2556 51.4849 37.3164 51.5486C37.3773 51.6124 37.4112 51.6971 37.4111 51.7852L37.3178 76.8036ZM52.8669 76.8036C52.8684 76.8833 52.8407 76.9607 52.7891 77.0213C52.7596 77.0543 52.7238 77.081 52.6837 77.0997C52.6436 77.1184 52.6001 77.1288 52.5559 77.1302H46.8805C46.7939 77.1302 46.7108 77.0958 46.6496 77.0345C46.5883 76.9733 46.5539 76.8903 46.5539 76.8036V59.4975C46.5539 59.4109 46.5883 59.3279 46.6496 59.2666C46.7108 59.2054 46.7939 59.171 46.8805 59.171H52.6958C52.738 59.1709 52.7798 59.1795 52.8185 59.1961C52.8573 59.2127 52.8923 59.237 52.9214 59.2675C52.9505 59.298 52.9731 59.3342 52.9877 59.3737C53.0024 59.4133 53.0089 59.4554 53.0068 59.4975L52.8669 76.8036ZM55.9767 70.6773V59.4975C55.9767 58.5888 55.6168 57.7171 54.9757 57.0731C54.3346 56.4291 53.4646 56.0653 52.5559 56.0612H46.8805C45.9704 56.0653 45.0987 56.4286 44.4551 57.0722C43.8116 57.7157 43.4482 58.5874 43.4441 59.4975V70.6773H40.5209V51.7852C40.5229 51.3326 40.4356 50.8841 40.2638 50.4654C40.092 50.0467 39.8392 49.666 39.5199 49.3453C39.2006 49.0245 38.8211 48.77 38.4032 48.5963C37.9852 48.4227 37.5371 48.3333 37.0845 48.3333H31.2692C30.8179 48.3353 30.3715 48.4262 29.9553 48.6008C29.5392 48.7754 29.1615 49.0302 28.8439 49.3507C28.5262 49.6713 28.2748 50.0513 28.104 50.469C27.9332 50.8867 27.8463 51.3339 27.8484 51.7852V70.6773H24.8785V65.1107C24.8744 64.2021 24.5106 63.332 23.8666 62.6909C23.2226 62.0498 22.3509 61.6899 21.4422 61.6899H15.6735C14.7648 61.6899 13.8931 62.0498 13.2491 62.6909C12.6051 63.332 12.2412 64.2021 12.2371 65.1107V70.724H8.20991C7.5368 70.7219 6.87071 70.5871 6.24981 70.3271C5.62891 70.0672 5.06542 69.6873 4.59163 69.2091C4.11784 68.731 3.74306 68.1641 3.48878 67.5408C3.2345 66.9176 3.10572 66.2503 3.10982 65.5772V8.4499C3.10982 7.09727 3.64715 5.80004 4.6036 4.84359C5.56005 3.88714 6.85728 3.3498 8.20991 3.3498H75.7551C77.1077 3.3498 78.405 3.88714 79.3614 4.84359C80.3179 5.80004 80.8552 7.09727 80.8552 8.4499V65.5772C80.8511 66.9286 80.3124 68.2234 79.3569 69.179C78.4013 70.1346 77.1065 70.6732 75.7551 70.6773H71.7279V40.0145C71.7279 39.1032 71.3658 38.2291 70.7214 37.5847C70.077 36.9402 69.2029 36.5782 68.2915 36.5782H62.4917C61.5858 36.5864 60.7197 36.952 60.082 37.5956C59.4442 38.2391 59.0865 39.1085 59.0865 40.0145V70.6773H55.9767Z" fill="#F92596"></path>
                        <path d="M65.3999 30.3585C66.8242 30.3504 68.1879 29.7809 69.1951 28.7738C70.2023 27.7666 70.7717 26.4029 70.7799 24.9786C70.7758 23.553 70.2076 22.1869 69.1996 21.1789C68.1915 20.1708 66.8255 19.6027 65.3999 19.5986C63.973 19.5986 62.6046 20.1654 61.5957 21.1743C60.5867 22.1833 60.0199 23.5517 60.0199 24.9786C60.0468 26.0435 60.3995 27.0746 61.0306 27.9329L51.7012 39.5014C50.7269 39.1266 49.6663 39.0358 48.6425 39.2395C47.6187 39.4431 46.6736 39.9329 45.9169 40.652C45.8913 40.7021 45.86 40.7491 45.8236 40.792L39.3241 37.5733C39.4049 37.3041 39.4621 37.0283 39.4951 36.7492C39.4951 35.3223 38.9283 33.9539 37.9194 32.945C36.9104 31.936 35.542 31.3692 34.1152 31.3692C32.6883 31.3692 31.3199 31.936 30.3109 32.945C29.302 33.9539 28.7352 35.3223 28.7352 36.7492C28.7383 37.4893 28.8972 38.2204 29.2016 38.895L21.3494 45.5811C20.5089 45.0079 19.5209 44.6893 18.5039 44.6637C17.0824 44.6678 15.7203 45.2343 14.7152 46.2394C13.71 47.2446 13.1435 48.6066 13.1394 50.0281C13.1273 50.7353 13.2588 51.4376 13.5261 52.0924C13.7934 52.7472 14.1908 53.341 14.6944 53.8376C15.4467 54.5859 16.4035 55.095 17.4444 55.301C18.4853 55.5069 19.5639 55.4004 20.5444 54.9948C21.525 54.5893 22.3637 53.9029 22.9551 53.0219C23.5466 52.1409 23.8643 51.1048 23.8683 50.0437C23.8613 49.3106 23.708 48.5864 23.4174 47.9134L31.2697 41.2273C32.1032 41.8048 33.086 42.1288 34.0996 42.1603C34.8336 42.1549 35.5587 41.999 36.23 41.7021C36.9013 41.4052 37.5046 40.9737 38.0024 40.4343L44.5019 43.6374C44.4241 43.9127 44.367 44.1933 44.3309 44.4771C44.3022 45.3318 44.4777 46.1811 44.8428 46.9544C45.2079 47.7278 45.7521 48.403 46.4303 48.924C47.1085 49.445 47.9012 49.7968 48.7425 49.9502C49.5838 50.1037 50.4496 50.0544 51.2681 49.8064C52.0865 49.5583 52.8341 49.1188 53.4487 48.5241C54.0633 47.9295 54.5274 47.1968 54.8023 46.387C55.0772 45.5772 55.1551 44.7135 55.0295 43.8676C54.9039 43.0216 54.5785 42.2178 54.0802 41.5228L63.3163 29.9854C63.9796 30.2453 64.6876 30.3721 65.3999 30.3585ZM20.8362 50.0281C20.8247 50.6107 20.5911 51.1669 20.1832 51.583C19.7494 51.9965 19.1731 52.2272 18.5738 52.2272C17.9746 52.2272 17.3983 51.9965 16.9645 51.583C16.5511 51.1706 16.3165 50.6121 16.3115 50.0281C16.3094 49.7307 16.3662 49.4359 16.4786 49.1605C16.591 48.8852 16.7567 48.6348 16.9663 48.4238C17.1759 48.2128 17.4251 48.0453 17.6997 47.931C17.9742 47.8168 18.2687 47.7579 18.5661 47.758C19.148 47.7726 19.7031 48.0057 20.121 48.411C20.5289 48.8271 20.7625 49.3833 20.774 49.9659L20.8362 50.0281ZM34.2084 39.0194C33.6233 39.0053 33.0663 38.7657 32.6535 38.3508C32.4453 38.1483 32.2791 37.9067 32.1643 37.6399C32.0496 37.3731 31.9886 37.0863 31.9849 36.7959C31.9954 36.3519 32.1358 35.9207 32.3888 35.5558C32.6418 35.1909 32.9963 34.9081 33.4084 34.7426C33.8205 34.5771 34.2721 34.5361 34.7073 34.6247C35.1424 34.7133 35.542 34.9275 35.8566 35.2409C36.2744 35.6518 36.5144 36.21 36.5253 36.7959C36.5212 37.0946 36.4579 37.3896 36.3389 37.6637C36.2199 37.9377 36.0476 38.1854 35.832 38.3923C35.6164 38.5992 35.3619 38.7612 35.0832 38.8688C34.8045 38.9765 34.5071 39.0276 34.2084 39.0194ZM65.3999 22.7084C65.9825 22.7199 66.5387 22.9535 66.9548 23.3614C67.3671 23.776 67.6062 24.3319 67.6234 24.9164C67.6062 25.5008 67.3671 26.0567 66.9548 26.4713C66.521 26.8848 65.9448 27.1154 65.3455 27.1154C64.7462 27.1154 64.1699 26.8848 63.7361 26.4713C63.4227 26.1567 63.2085 25.757 63.1199 25.3219C63.0313 24.8867 63.0723 24.4351 63.2378 24.023C63.4033 23.611 63.6861 23.2565 64.051 23.0034C64.416 22.7504 64.8471 22.61 65.2911 22.5995L65.3999 22.7084ZM52.0588 44.4771C52.0483 44.9211 51.9079 45.3522 51.6549 45.7171C51.4019 46.0821 51.0474 46.3648 50.6353 46.5303C50.2232 46.6958 49.7716 46.7368 49.3365 46.6482C48.9013 46.5597 48.5017 46.3454 48.1871 46.032C47.9209 45.7668 47.7246 45.4397 47.616 45.0799C47.5074 44.7202 47.4897 44.3391 47.5647 43.9709C47.6396 43.6027 47.8048 43.2588 48.0454 42.9702C48.286 42.6815 48.5945 42.4571 48.9432 42.3171C49.2919 42.177 49.6699 42.1257 50.0433 42.1678C50.4168 42.2099 50.7739 42.3439 51.0827 42.558C51.3915 42.7721 51.6424 43.0596 51.8127 43.3945C51.9831 43.7294 52.0676 44.1014 52.0588 44.4771Z" fill="#F92596"></path>
                        <path d="M31.7209 10.3313H70.8113C71.2237 10.3313 71.6192 10.1675 71.9108 9.87592C72.2024 9.58432 72.3662 9.18882 72.3662 8.77643C72.3662 8.36405 72.2024 7.96855 71.9108 7.67695C71.6192 7.38535 71.2237 7.22153 70.8113 7.22153H31.7209C31.3085 7.22153 30.913 7.38535 30.6214 7.67695C30.3298 7.96855 30.166 8.36405 30.166 8.77643C30.166 9.18882 30.3298 9.58432 30.6214 9.87592C30.913 10.1675 31.3085 10.3313 31.7209 10.3313Z" fill="#F92596"></path>
                     </svg>