<svg width="76" height="80" viewBox="0 0 76 80" fill="none" xmlns="http://www.w3.org/2000/svg">
                        <path d="M49.5784 25.4418C41.7982 13.9956 31.407 7.91209 25.9653 11.6396C25.366 12.0615 24.8454 12.5852 24.4268 13.1868C24.4268 13.2308 11.829 38.7253 11.829 38.7253L4.79603 43.4901C3.71637 44.223 2.79168 45.1615 2.07479 46.2518C1.3579 47.3422 0.862862 48.5631 0.617946 49.8448C0.373029 51.1266 0.383037 52.444 0.647398 53.7218C0.911759 54.9997 1.42529 56.213 2.15866 57.2923L2.47515 57.7582C3.95753 59.9176 6.23147 61.4056 8.80376 61.8993C11.376 62.393 14.0393 61.8527 16.2158 60.3956L27.5125 77.0374C29.174 79.0857 32.3653 81.1253 36.3037 78.7253C37.0014 78.2729 37.5966 77.6793 38.0509 76.9827C38.5051 76.2862 38.8084 75.5022 38.9411 74.6813C39.1002 73.8648 39.0959 73.0249 38.9284 72.21C38.7609 71.3952 38.4335 70.6216 37.9653 69.9341L28.0136 55.2527C28.0136 55.2527 51.5389 53.3802 51.6268 53.3451C52.3613 53.1913 53.0577 52.8924 53.6751 52.4659C56.4708 50.567 57.473 46.5846 56.5059 41.2484C55.6356 36.3341 53.1653 30.7692 49.5784 25.4418ZM5.03339 56.0264L4.71691 55.5604C4.21092 54.8155 3.85681 53.9781 3.67486 53.0962C3.4929 52.2143 3.48667 51.3051 3.65651 50.4207C3.82636 49.5364 4.16895 48.6942 4.66468 47.9424C5.16041 47.1907 5.79953 46.544 6.54548 46.0396L12.6202 41.9077L20.6378 53.7143L14.5631 57.8462C13.818 58.3528 12.9804 58.7076 12.0981 58.8904C11.2158 59.0731 10.3061 59.0802 9.42109 58.9112C8.53607 58.7422 7.69303 58.4004 6.94016 57.9054C6.18729 57.4104 5.53935 56.7719 5.03339 56.0264ZM35.4334 71.6659C35.9139 72.3809 36.0911 73.2572 35.9263 74.1027C35.7615 74.9481 35.2681 75.6937 34.5543 76.1758C33.838 76.6568 32.9603 76.8343 32.1134 76.6695C31.2665 76.5047 30.5193 76.0111 30.0356 75.2967L18.774 58.7077L23.3015 55.6308L24.4971 55.5341L35.4334 71.6659ZM23.5477 52.5187L14.8092 39.6483L23.1433 22.6549C23.9521 27.4286 26.3169 33.0989 30.0971 38.6637C33.8773 44.2286 38.2729 48.5187 42.4048 51.033L23.5477 52.5187ZM49.4817 50.4703C45.2795 50.1978 38.44 45.4593 32.6466 36.9231C26.8532 28.3868 24.9719 20.3077 26.2642 16.2901C26.4975 15.536 26.9632 14.8749 27.5948 14.4013C28.2263 13.9276 28.9913 13.6656 29.7806 13.6527C33.9477 13.6527 41.0422 18.4176 47.0026 27.2C50.3609 32.1407 52.8048 37.3099 53.4729 41.8286C54.7828 50.4703 49.4817 50.4703 49.4817 50.4703Z" fill="#8E56FF"></path>
                        <path d="M38.5891 25.767C37.5123 25.5556 36.4041 25.5609 35.3293 25.7828C34.2546 26.0047 33.2349 26.4387 32.3298 27.0593C32.163 27.1748 32.0205 27.322 31.9106 27.4925C31.8006 27.663 31.7254 27.8534 31.689 28.053C31.6527 28.2526 31.656 28.4574 31.6989 28.6557C31.7417 28.854 31.8231 29.042 31.9386 29.2088C32.054 29.3756 32.2012 29.5181 32.3717 29.628C32.5422 29.7379 32.7327 29.8132 32.9323 29.8496C33.1319 29.8859 33.3367 29.8825 33.535 29.8397C33.7333 29.7969 33.9212 29.7154 34.088 29.6C34.6612 29.2109 35.3055 28.9386 35.9839 28.7985C36.6624 28.6584 37.3618 28.6533 38.0422 28.7835C38.7226 28.9137 39.3707 29.1767 39.9495 29.5574C40.5283 29.938 41.0265 30.429 41.4155 31.0022C41.8046 31.5754 42.0769 32.2196 42.217 32.8981C42.3571 33.5765 42.3622 34.2759 42.232 34.9563C42.1018 35.6368 41.8388 36.2849 41.4582 36.8637C41.0775 37.4425 40.5865 37.9406 40.0133 38.3297C39.743 38.5163 39.5396 38.7846 39.4327 39.0952C39.3259 39.4057 39.3213 39.7424 39.4195 40.0558C39.5178 40.3692 39.7137 40.643 39.9788 40.837C40.2438 41.031 40.564 41.1351 40.8924 41.1341C41.2058 41.1399 41.5132 41.0477 41.7716 40.8703C43.1389 39.9441 44.2006 38.6328 44.8221 37.1026C45.4436 35.5724 45.597 33.8922 45.2628 32.2748C44.9286 30.6574 44.1218 29.1756 42.9447 28.0171C41.7676 26.8586 40.2732 26.0755 38.6507 25.767H38.5891Z" fill="#8E56FF"></path>
                        <path d="M51.4772 14.7429H51.6266C52.0072 14.7427 52.3741 14.6015 52.6566 14.3466C52.9392 14.0917 53.1172 13.7411 53.1563 13.3626L54.3431 1.82857C54.3701 1.62462 54.356 1.41732 54.3014 1.21894C54.2469 1.02056 54.1532 0.83513 54.0257 0.67362C53.8983 0.51211 53.7398 0.377801 53.5595 0.27864C53.3792 0.179478 53.1809 0.117479 52.9763 0.096309C52.7716 0.0751392 52.5648 0.0952294 52.3681 0.155391C52.1714 0.215552 51.9887 0.314563 51.8309 0.446565C51.6731 0.578567 51.5433 0.740879 51.4494 0.923897C51.3554 1.10692 51.2991 1.30692 51.2838 1.51209L50.1058 13.0549C50.064 13.4606 50.1849 13.8663 50.4421 14.1828C50.6993 14.4993 51.0716 14.7007 51.4772 14.7429Z" fill="#8E56FF"></path>
                        <path d="M71.3638 12.3692C71.1379 12.0287 70.7865 11.7914 70.3863 11.709C69.9861 11.6267 69.5695 11.706 69.2275 11.9297L58.5111 18.9626C58.2328 19.1464 58.0218 19.4156 57.9097 19.7296C57.7977 20.0437 57.7908 20.3857 57.8899 20.7041C57.9891 21.0224 58.1891 21.2999 58.4596 21.4948C58.7302 21.6897 59.0568 21.7914 59.3902 21.7846C59.7012 21.7918 60.0072 21.7061 60.2693 21.5385L70.9858 14.5055C71.3182 14.2716 71.5446 13.9156 71.6154 13.5153C71.6863 13.1151 71.5958 12.703 71.3638 12.3692Z" fill="#8E56FF"></path>
                        <path d="M74.6425 31.1473L62.1766 28.9055C61.7744 28.8332 61.36 28.9237 61.0245 29.157C60.689 29.3902 60.4599 29.7473 60.3876 30.1494C60.3153 30.5516 60.4058 30.9661 60.639 31.3016C60.8723 31.6371 61.2293 31.8662 61.6315 31.9385L74.0887 34.1802H74.3612C74.7532 34.1917 75.1348 34.053 75.4279 33.7926C75.7211 33.5321 75.9038 33.1695 75.9386 32.7789C75.9734 32.3883 75.8577 31.9992 75.6151 31.691C75.3726 31.3828 75.0216 31.1789 74.6337 31.1209L74.6425 31.1473Z" fill="#8E56FF"></path>
                     </svg>