<svg width="80" height="68" viewBox="0 0 80 68" fill="none" xmlns="http://www.w3.org/2000/svg">
                        <path d="M78.2812 0.481247H1.71875C0.769531 0.481247 0 1.25078 0 2.2V54.6911C0 55.6403 0.769531 56.4098 1.71875 56.4098H21.8684C22.8137 56.4367 23.7003 56.8145 24.3842 57.4812C26.7034 59.7064 25.3802 63.8687 22.0969 64.0744H14.4269C13.4777 64.0744 12.7081 64.8439 12.7081 65.7931C12.7081 66.7423 13.4777 67.5119 14.4269 67.5119H21.6052C21.798 67.5208 21.9913 67.5209 22.1836 67.5119H57.8162C58.0087 67.5209 58.2017 67.5208 58.3947 67.5119H65.573C66.5222 67.5119 67.2917 66.7423 67.2917 65.7931C67.2917 64.8439 66.5222 64.0744 65.573 64.0744H57.9033C54.6233 63.8658 53.293 59.7161 55.6158 57.4812C56.3005 56.8139 57.1839 56.4366 58.1344 56.4098H78.2812C79.2305 56.4098 80 55.6403 80 54.6911V2.2C80 1.25078 79.2305 0.481247 78.2812 0.481247ZM52.0611 64.0745H27.9389C29.3506 61.8017 29.3383 58.658 27.9009 56.41H52.0994C50.6617 58.658 50.6495 61.8016 52.0611 64.0745ZM76.5625 52.9725H3.4375V3.91875H76.5625V52.9725Z" fill="#39B410"></path>
                        <path d="M68.7662 39.5569H43.5098C42.5605 39.5569 41.791 38.7873 41.791 37.8381C41.791 36.8889 42.5605 36.1194 43.5098 36.1194H68.7662C71.039 36.2064 71.052 39.4639 68.7662 39.5569Z" fill="#39B410"></path>
                        <path d="M68.7662 20.4955H43.5098C42.5605 20.4955 41.791 19.7259 41.791 18.7767C41.791 17.8275 42.5605 17.058 43.5098 17.058H68.7662C71.039 17.1451 71.052 20.4025 68.7662 20.4955Z" fill="#39B410"></path>
                        <path d="M68.7662 30.0261H43.5098C42.5605 30.0261 41.791 29.2566 41.791 28.3073C41.791 27.3581 42.5605 26.5886 43.5098 26.5886H68.7662C71.039 26.6758 71.052 29.9331 68.7662 30.0261Z" fill="#39B410"></path>
                        <path d="M25.9908 38.9812C25.5882 38.9812 25.184 38.8406 24.8577 38.5542L18.3524 32.8445C16.6996 31.2752 18.845 28.8247 20.6199 30.2611L27.1252 35.9708C28.3166 37.0134 27.5543 38.9895 25.9908 38.9812Z" fill="#39B410"></path>
                        <path d="M29.572 46.8892C25.9966 46.8892 23.0879 43.9805 23.0879 40.4052C23.4441 31.8031 35.7012 31.8056 36.056 40.4052C36.056 43.9806 33.1473 46.8892 29.572 46.8892ZM29.572 37.3586C27.8921 37.3586 26.5254 38.7253 26.5254 40.4052C26.6927 44.4469 32.4518 44.4456 32.6185 40.4052C32.6185 38.7253 31.2518 37.3586 29.572 37.3586Z" fill="#39B410"></path>
                        <path d="M19.4872 26.9861C17.9254 26.9939 17.1599 25.0201 18.3529 23.9756L24.8582 18.2659C26.6285 16.8309 28.7805 19.2755 27.1257 20.8494L20.6204 26.5591C20.2941 26.8455 19.8897 26.9861 19.4872 26.9861Z" fill="#39B410"></path>
                        <path d="M29.572 22.8987C25.9966 22.8987 23.0879 19.99 23.0879 16.4147C23.444 7.81265 35.7012 7.81515 36.056 16.4147C36.056 19.9902 33.1473 22.8987 29.572 22.8987ZM29.572 13.3681C27.8921 13.3681 26.5254 14.7347 26.5254 16.4147C26.6927 20.4564 32.4518 20.4552 32.6185 16.4147C32.6185 14.7348 31.2518 13.3681 29.572 13.3681Z" fill="#39B410"></path>
                        <path d="M15.9061 34.8941C12.3306 34.8941 9.42188 31.9853 9.42188 28.41C9.77797 19.8081 22.0353 19.8105 22.3902 28.41C22.3902 31.9853 19.4814 34.8941 15.9061 34.8941ZM15.9061 25.3634C14.2261 25.3634 12.8594 26.7302 12.8594 28.41C13.0267 32.4516 18.7859 32.4506 18.9527 28.41C18.9527 26.73 17.5859 25.3634 15.9061 25.3634Z" fill="#39B410"></path>
                     </svg>