<svg width="985" height="168" viewBox="0 0 985 168" fill="none" xmlns="http://www.w3.org/2000/svg">
<rect width="985" height="168" fill="white"/>
<path d="M55.3629 52.0535V10C45.7736 10 38 17.7736 38 27.3628V112.937H55.3629V71.5111H108.692V112.937C118.281 112.937 126.054 105.163 126.054 95.5741V10H108.692V52.0535H55.3629Z" fill="black"/>
<path d="M656.862 52.0535V10C647.273 10 639.499 17.7736 639.499 27.3628V112.937H656.862V71.5111H710.191V112.937C719.78 112.937 727.553 105.163 727.553 95.5741V10H710.191V52.0535H656.862Z" fill="black"/>
<path d="M274.259 27.3629H330.688C330.688 17.7736 322.914 10 313.325 10H273.854C262.776 10 253.795 18.9807 253.795 30.0589V96.9369C253.795 105.773 260.959 112.937 269.795 112.937H313.325C322.914 112.937 330.688 105.163 330.688 95.5741L274.259 96.1942C272.285 95.8834 271.336 95.499 271.158 93.0936V29.8433C271.451 28.0136 272.196 27.4851 274.259 27.3629Z" fill="black"/>
<path d="M625.857 10H555.165C545.576 10 537.802 17.7736 537.802 27.3629H573.768V112.937C583.357 112.937 591.131 105.163 591.131 95.574V27.3629H608.494C618.083 27.3629 625.857 19.5892 625.857 10Z" fill="black"/>
<path d="M232.712 29.2231V95.5741C232.712 105.163 224.939 112.937 215.35 112.937V32.3237C215.012 29.3174 214.349 27.9918 210.389 27.983C204.255 27.6366 201.348 28.0626 199.227 32.3237L165.917 94.0994C165.557 94.7657 166.04 95.5741 166.797 95.5741H200.467C200.467 105.163 192.694 112.937 183.104 112.937H163.261C140.194 113.632 135.883 108.744 146.518 89.9931L184.965 18.6814C188.266 12.9735 191.18 10.8048 199.227 10H213.489C224.106 10 232.712 18.6065 232.712 29.2231Z" fill="black"/>
<path d="M524.16 29.2231V95.5741C524.16 105.163 516.387 112.937 506.797 112.937V32.3237C506.46 29.3174 505.797 27.9918 501.837 27.983C495.703 27.6366 492.796 28.0626 490.675 32.3237L457.364 94.0994C457.005 94.7657 457.488 95.5741 458.244 95.5741H491.915C491.915 105.163 484.141 112.937 474.552 112.937H454.709C431.642 113.632 427.331 108.744 437.966 89.9931L476.412 18.6814C479.714 12.9735 482.628 10.8048 490.675 10H504.937C515.554 10 524.16 18.6065 524.16 29.2231Z" fill="black"/>
<path d="M860.255 10V95.5741C860.255 105.163 868.028 112.937 877.618 112.937V41.6252C877.616 39.001 878.214 38.8074 880.718 41.6252L926.726 108.599C928.592 111.314 931.675 112.937 934.969 112.937H947.069V27.3629C947.069 17.7736 939.296 10 929.706 10V81.3117C929.855 85.3446 929.128 85.5854 925.986 81.3117L880.593 14.3867C878.732 11.643 875.632 10 872.317 10H860.255Z" fill="black"/>
<path fill-rule="evenodd" clip-rule="evenodd" d="M792.281 10.4293C791.921 10.6524 791.382 11.1012 791.082 11.4262L790.537 12.0173L790.477 22.5257L790.416 33.0342L790.913 33.7833C791.605 34.8267 793.211 35.5967 794.31 35.4113C795.438 35.2206 796.442 34.5809 796.969 33.7175C797.385 33.0356 797.402 32.6011 797.403 22.7451L797.404 12.4827L796.908 11.7476C795.799 10.1029 793.748 9.51853 792.281 10.4293ZM768.521 16.5943C767.189 17.3307 766.417 18.5445 766.396 19.9362C766.384 20.684 766.632 21.2969 767.683 23.122C768.399 24.3648 770.337 27.7349 771.99 30.6108C776.233 37.992 776.41 38.2683 777.219 38.7683C778.194 39.3703 780.026 39.377 781.002 38.7822C782.032 38.1548 782.579 37.1347 782.58 35.8398C782.581 34.6454 782.414 34.3108 778.125 26.9069C776.945 24.8698 775.713 22.7128 775.388 22.1137C773.526 18.6841 772.427 17.1697 771.42 16.6461C770.722 16.2831 769.135 16.2546 768.521 16.5943ZM816.477 16.7498C815.998 16.9699 815.448 17.3355 815.255 17.5621C815.062 17.7886 813.746 19.984 812.331 22.4405C810.915 24.897 809.095 28.0386 808.285 29.4214C806.114 33.1312 805.032 35.2551 805.038 35.7958C805.046 36.5828 805.795 37.9966 806.534 38.6182C807.894 39.7614 809.991 39.5932 811.243 38.2406C811.604 37.8502 812.701 36.1207 813.681 34.3975C814.661 32.6743 816.794 28.9619 818.422 26.1476C821.17 21.3962 821.382 20.9513 821.382 19.916C821.382 18.4976 820.748 17.4976 819.426 16.8302C818.256 16.2391 817.627 16.2219 816.477 16.7498ZM750.479 34.54C748.971 35.5642 748.424 37.3928 749.161 38.9448C749.633 39.9402 750.362 40.44 756.479 43.9677C766.634 49.8244 767.362 50.2113 768.185 50.188C770.242 50.1294 771.674 48.755 771.726 46.7894C771.775 44.9132 771.337 44.3747 768.296 42.5759C764.343 40.2379 760.16 37.8101 758.821 37.0774C758.161 36.7163 756.695 35.8736 755.562 35.2045C753.791 34.1583 753.348 33.9879 752.397 33.9879C751.574 33.9879 751.085 34.1286 750.479 34.54ZM825.863 38.8981C821.194 41.5943 817.201 43.9576 816.988 44.1498C816.343 44.7328 815.861 46.283 816.034 47.2144C816.365 49.001 818.381 50.5309 820.002 50.227C820.794 50.0784 837.024 40.829 837.922 40.0141C839.087 38.9574 839.34 37.2558 838.541 35.8464C837.832 34.5945 836.823 33.987 835.464 33.992C834.414 33.9959 833.879 34.2692 825.863 38.8981ZM744.09 58.4908C741.759 59.8874 741.925 63.4363 744.375 64.6135C745.116 64.9695 746.012 65.0146 753.48 65.0726C763.499 65.1504 765.32 65.0563 766.277 64.412C767.887 63.3274 768.335 61.1351 767.274 59.5329C766.21 57.9258 766.428 57.9539 755.082 57.9561L744.979 57.9583L744.09 58.4908ZM822.254 58.1328C820.814 58.7847 820.03 59.9316 820.007 61.4164C819.978 63.3594 821.315 64.7817 823.409 65.0345C824.032 65.1096 828.67 65.1406 833.714 65.1031L842.886 65.0351L843.762 64.4553C845.962 62.9993 845.897 59.9747 843.633 58.4496L842.898 57.9542L832.739 57.9694C827.152 57.9779 822.433 58.0513 822.254 58.1328ZM761.105 76.2764C757.751 78.205 753.9 80.4204 752.549 81.1995C749.507 82.9527 748.902 83.6508 748.902 85.4065C748.902 87.4891 750.329 88.8925 752.445 88.8925C753.374 88.8925 753.889 88.6704 756.652 87.0778C758.384 86.0797 762.156 83.9079 765.033 82.2516C767.91 80.5953 770.451 79.0835 770.678 78.8918C771.389 78.2917 771.95 76.7609 771.794 75.8415C771.473 73.9425 770.14 72.7719 768.298 72.7706C767.282 72.7697 766.77 73.0192 761.105 76.2764ZM817.729 73.2043C816.905 73.7061 816.21 74.7497 816.016 75.7748C815.828 76.769 816.46 78.3185 817.314 78.9571C817.693 79.2406 820.455 80.8882 823.453 82.6185C835.033 89.3045 834.244 88.8925 835.466 88.8925C836.258 88.8925 836.782 88.7521 837.297 88.4022C838.528 87.5645 838.929 86.8338 838.929 85.428C838.929 83.321 838.839 83.2495 829.19 77.6935C821.128 73.0514 820.575 72.7697 819.538 72.7706C818.826 72.771 818.189 72.9237 817.729 73.2043ZM778.202 83.6539C776.703 84.1079 776.682 84.1371 771.743 92.7053C770.776 94.3829 769.189 97.1253 768.217 98.7995C766.671 101.463 766.45 101.975 766.45 102.896C766.45 105.275 768.382 106.88 770.718 106.443C771.899 106.221 772.813 105.188 774.585 102.074C775.472 100.516 777.105 97.6728 778.215 95.7555C782.531 88.3001 782.65 88.0648 782.635 87.0566C782.611 85.4494 781.785 84.3079 780.252 83.7613C779.313 83.4266 779.006 83.4105 778.202 83.6539ZM807.58 83.7613C806.004 84.3232 805.251 85.4001 805.251 87.0939C805.251 88.0724 805.609 88.7707 810.177 96.6965C815.736 106.341 815.807 106.431 817.916 106.431C819.322 106.431 820.053 106.031 820.891 104.8C821.243 104.283 821.382 103.762 821.382 102.957C821.382 101.904 821.165 101.459 817.865 95.7451C811.352 84.4665 811.365 84.4861 810.273 83.9358C809.159 83.3745 808.741 83.3473 807.58 83.7613ZM792.22 87.9475C791.826 88.1414 791.287 88.6049 791.021 88.9774C790.54 89.6511 790.537 89.7132 790.477 99.9581C790.408 111.549 790.377 111.297 792.008 112.375C793.723 113.51 796.184 112.856 797.049 111.035C797.38 110.337 797.41 109.246 797.355 99.9527L797.295 89.6439L796.788 89.0005C796.51 88.6467 796.019 88.1842 795.698 87.9726C794.958 87.4848 793.185 87.4719 792.22 87.9475Z" fill="url(#paint0_linear_944_14526)"/>
<path fill-rule="evenodd" clip-rule="evenodd" d="M347.173 94.601C347.564 96.1914 348.94 99.1097 349.618 99.7868C349.915 100.084 350.292 100.234 350.743 100.234C351.369 100.234 351.437 100.292 351.626 100.996C351.885 101.954 352.262 102.222 355.401 103.672C368.724 109.828 384.399 113.244 397.821 112.916C401.418 112.828 402.553 112.728 404.392 112.337C409.838 111.179 412.966 109.168 413.871 106.24L414.257 104.992L413.721 104.43C412.762 103.421 411.667 102.95 405.729 100.991C396.537 97.9578 390.707 95.5053 384.142 91.9097C378.051 88.5738 375.751 86.9869 372.337 83.7636C370.012 81.5698 368.583 80.698 366.751 80.3567C365.852 80.1892 365.195 80.277 361.049 81.1194C353.919 82.5685 351.271 83.2059 350.437 83.6738C349.471 84.2161 348.935 85.0745 349.06 85.8777C349.152 86.473 349.142 86.4821 348.335 86.4933C347.885 86.4995 347.431 86.5898 347.327 86.6939C346.72 87.3 346.622 92.3579 347.173 94.601ZM346.975 35.1874C347.176 36.2114 347.321 36.339 348.28 36.339H349.16L349.042 36.9664C348.742 38.5736 350.204 39.4604 354.818 40.4688C362.854 42.225 365.63 42.7287 366.573 42.6016C368.234 42.3779 370.04 41.2952 372.251 39.1981C375.907 35.7296 380.046 33.0155 387.191 29.4015C393.495 26.2126 397.39 24.6442 406.131 21.774C411.536 19.9992 412.682 19.5 413.656 18.4966L414.257 17.8768L413.871 16.6277C412.961 13.6829 409.867 11.7039 404.295 10.5015C402.09 10.0257 401.692 10.0012 396.178 10.0006C390.356 10.0002 388.177 10.1604 382.939 10.9746C373.147 12.4961 363.97 15.2357 355.401 19.195C352.262 20.6455 351.885 20.9134 351.626 21.8711C351.437 22.5751 351.369 22.6336 350.743 22.6336C350.288 22.6336 349.915 22.7837 349.608 23.0907C348.919 23.7786 347.45 26.9855 347.103 28.5591C346.789 29.9861 346.714 33.8558 346.975 35.1874ZM347.868 73.3052C348.134 77.4504 348.677 83.2584 348.811 83.392C348.856 83.4368 349.281 83.2463 349.756 82.9683C350.82 82.3458 352.745 81.852 359.509 80.467C363.094 79.7328 365.09 79.2308 365.749 78.8974C367.003 78.2627 368.17 77.2014 368.699 76.2138L369.12 75.4286V61.4335V47.4385L368.587 46.5336C368.006 45.5456 366.85 44.5179 365.641 43.9137C365.216 43.7012 363.085 43.1665 360.906 42.7252C353.996 41.3265 351.019 40.5862 349.905 39.9899C349.329 39.6814 348.829 39.4575 348.794 39.4921C348.664 39.6222 348.137 45.5367 347.859 49.9767C347.51 55.5792 347.514 67.8048 347.868 73.3052ZM353.513 84.9454C353.827 84.6749 355.7 84.2116 356.479 84.2116C357.321 84.2116 357.736 85.4241 357.089 85.9937C356.733 86.3072 355.072 86.7211 354.171 86.7211C353.878 86.7211 353.535 86.6168 353.407 86.4894C353.065 86.1482 353.125 85.2797 353.513 84.9454ZM353.499 36.429C353.754 36.1742 354.024 36.1319 354.764 36.23C356.05 36.4002 357.061 36.7602 357.292 37.1295C357.602 37.6271 357.292 38.4404 356.738 38.5792C356.086 38.7429 353.938 38.3122 353.513 37.9327C353.086 37.5503 353.079 36.8488 353.499 36.429ZM356.259 27.7111C357.303 26.001 359.584 25.7252 361.055 27.1311C361.872 27.9131 362.146 28.901 361.859 30.0378C361.206 32.6275 357.653 33.159 356.259 30.8754C355.756 30.0521 355.756 28.5344 356.259 27.7111ZM358.472 91.181C358.786 90.8345 359.061 90.7748 360.344 90.7748C362.145 90.7748 362.608 90.9317 363.835 91.9581C365.191 93.092 365.227 93.4875 364.081 94.6496C362.985 95.7613 362.475 95.9576 360.499 96.0277C358.318 96.1051 357.984 95.7123 358.058 93.1596C358.094 91.9278 358.183 91.4993 358.472 91.181ZM363.787 35.6443C364.319 34.4741 365.199 33.9261 366.545 33.9261C367.776 33.9261 368.428 34.2855 369.168 35.3719C370.042 36.6535 369.616 38.4497 368.188 39.5063C367.385 40.1003 365.672 40.0702 364.797 39.4467C364.101 38.9506 363.427 37.7073 363.427 36.9181C363.427 36.6527 363.589 36.0794 363.787 35.6443ZM363.853 20.321C364.435 19.184 365.11 18.7275 366.358 18.6275C367.199 18.5599 367.5 18.6263 368.052 19.0016C370.062 20.3656 370.142 22.8111 368.224 24.2296C366.871 25.2301 364.658 24.6212 363.853 23.027C363.614 22.5533 363.419 21.9419 363.419 21.6684C363.419 21.3949 363.614 20.7885 363.853 20.321ZM363.996 97.5378C364.192 96.855 366.021 94.8285 366.441 94.8285C366.734 94.8285 368.686 96.8564 368.873 97.3565C368.95 97.5619 369.026 98.4838 369.042 99.405C369.079 101.616 368.908 101.778 366.516 101.778C365.097 101.778 364.741 101.713 364.314 101.378C363.849 101.012 363.805 100.859 363.805 99.5909C363.805 98.8282 363.891 97.9042 363.996 97.5378ZM364.211 85.4486C364.521 85.1691 364.983 85.0648 366.15 85.0118C367.778 84.938 368.71 85.1772 368.932 85.7254C369.124 86.2016 369.038 88.9738 368.811 89.5761C368.561 90.243 366.912 91.933 366.511 91.933C366.073 91.933 364.207 89.9809 364.008 89.3135C363.914 89.0024 363.831 88.0882 363.822 87.2818C363.807 86.0248 363.863 85.7634 364.211 85.4486ZM367.229 79.4595C367.295 79.5251 367.496 79.5788 367.677 79.5788C368.601 79.5788 370.815 81.0179 372.923 82.9891C376.162 86.0175 377.775 87.1917 382.173 89.7197C387.282 92.6565 394.022 95.8317 399.367 97.8194C400.589 98.274 403.503 99.2651 405.841 100.022C411.448 101.836 412.564 102.274 413.606 103.068C414.087 103.435 414.504 103.707 414.533 103.673C414.689 103.494 415.022 100.909 415.022 99.8756C415.022 98.7446 414.979 98.6344 414.229 97.8214C413.125 96.6253 410.414 95.3551 405.551 93.7555C398.552 91.4529 395.481 89.9467 393.177 87.6863C390.989 85.5401 390.528 83.9561 391.226 80.9851C391.628 79.2748 391.636 78.902 391.636 61.4335C391.636 43.965 391.628 43.5923 391.226 41.882C390.534 38.9377 391.007 37.315 393.179 35.1808C395.485 32.9148 398.229 31.5591 405.165 29.2587C409.483 27.8266 412.932 26.3311 413.867 25.4853C414.803 24.6376 415.022 24.1514 415.022 22.9156C415.022 21.8108 414.711 19.6307 414.506 19.2987C414.455 19.2163 414.146 19.3732 413.82 19.6473C412.814 20.4924 411.611 20.9924 406.904 22.5202C398.37 25.2911 393.935 27.0647 387.771 30.1725C380.819 33.6775 376.572 36.4413 373.156 39.6835C371.024 41.7067 369.613 42.6827 368.103 43.1796L367.085 43.5141L368.045 44.3754C368.598 44.8727 369.233 45.7024 369.545 46.3376L370.086 47.4385V61.5301V75.6216L369.63 76.5387C369.379 77.0429 368.71 77.8797 368.142 78.3978C367.574 78.9161 367.163 79.3939 367.229 79.4595ZM368.887 92.1658C370.06 91.0088 370.689 90.7748 372.632 90.7748C373.902 90.7748 374.055 90.8182 374.421 91.2835C374.989 92.005 375.01 94.9397 374.452 95.6275C374.107 96.0524 373.969 96.0794 372.414 96.0255C371.496 95.9937 370.582 95.9068 370.383 95.8325C369.87 95.641 367.864 93.7226 367.864 93.4234C367.864 93.2866 368.324 92.7206 368.887 92.1658ZM371.416 27.9683C372.235 26.0099 374.957 25.6256 376.435 27.2594C377.601 28.5481 377.534 30.2901 376.273 31.5108C375.673 32.0919 375.448 32.1795 374.385 32.2449C373.363 32.3077 373.078 32.2502 372.522 31.868C371.279 31.014 370.819 29.394 371.416 27.9683ZM375.28 75.3687C377.136 71.841 381.671 70.9712 384.542 73.592C385.923 74.8523 386.461 76.0737 386.461 77.9473C386.461 80.2322 385.299 82.1315 383.241 83.2106C382.405 83.6491 382.024 83.7236 380.62 83.7236C379.211 83.7236 378.836 83.6497 377.987 83.2046C376.803 82.5843 375.537 81.2074 375.127 80.0954C374.726 79.0084 374.816 76.2522 375.28 75.3687ZM375.126 42.8509C376.045 40.1553 379.374 38.484 382.193 39.3025C386.609 40.5848 387.972 46.067 384.663 49.2424C383.153 50.6917 380.684 51.2098 378.626 50.5093C377.422 50.0995 375.841 48.6517 375.277 47.4424C374.729 46.2678 374.662 44.2114 375.126 42.8509Z" fill="url(#paint1_linear_944_14526)"/>
<path d="M47.69 132.49C47.69 130.65 46.74 129.73 44.84 129.73H42.2V139.18H44.84C46.74 139.18 47.69 138.27 47.69 136.45V132.49ZM40.07 127.84H44.96C46.54 127.84 47.74 128.25 48.56 129.07C49.4 129.89 49.82 130.99 49.82 132.37V136.54C49.82 137.94 49.41 139.05 48.59 139.87C47.77 140.67 46.56 141.07 44.96 141.07H42.2V148H40.07V127.84ZM97.8936 132.34C97.8936 130.44 96.9036 129.49 94.9236 129.49C92.9636 129.49 91.9836 130.44 91.9836 132.34V143.5C91.9836 145.42 92.9636 146.38 94.9236 146.38C96.9036 146.38 97.8936 145.42 97.8936 143.5V132.34ZM89.8536 132.31C89.8536 130.89 90.2836 129.74 91.1436 128.86C92.0036 127.98 93.2636 127.54 94.9236 127.54C96.6036 127.54 97.8736 127.98 98.7336 128.86C99.5936 129.74 100.024 130.89 100.024 132.31V143.56C100.024 144.98 99.5936 146.13 98.7336 147.01C97.8736 147.87 96.6036 148.3 94.9236 148.3C93.2436 148.3 91.9736 147.87 91.1136 147.01C90.2736 146.13 89.8536 144.98 89.8536 143.56V132.31ZM154.295 127.84H156.335L153.005 148H150.455C149.135 140.24 148.395 135.8 148.235 134.68C148.095 133.54 147.965 132.37 147.845 131.17C147.645 133.35 147.345 135.6 146.945 137.92L145.235 148H142.625L139.325 127.84H141.365L143.345 139.87L144.065 145.21C144.285 143.41 144.535 141.62 144.815 139.84L146.735 127.84H148.925L150.845 139.87L151.595 145.15C151.855 143.05 152.095 141.29 152.315 139.87L154.295 127.84ZM195.946 127.84H204.676V129.73H198.076V136.9H203.836V138.79H198.076V146.11H204.676V148H195.946V127.84ZM249.87 139.9H246.9V148H244.77V127.84H249.66C251.26 127.84 252.47 128.25 253.29 129.07C254.11 129.87 254.52 130.97 254.52 132.37V135.34C254.52 137.5 253.66 138.9 251.94 139.54L255.15 148H252.81L249.87 139.9ZM246.9 138.04H249.57C251.45 138.04 252.39 137.13 252.39 135.31V132.46C252.39 130.64 251.45 129.73 249.57 129.73H246.9V138.04ZM295.381 127.84H304.111V129.73H297.511V136.9H303.271V138.79H297.511V146.11H304.111V148H295.381V127.84ZM352.214 132.4C352.214 130.6 351.264 129.7 349.364 129.7H346.334V146.11H349.364C351.264 146.11 352.214 145.19 352.214 143.35V132.4ZM344.204 127.84H349.484C351.084 127.84 352.294 128.25 353.114 129.07C353.934 129.89 354.344 130.99 354.344 132.37V143.41C354.344 144.83 353.944 145.95 353.144 146.77C352.344 147.59 351.144 148 349.544 148H344.204V127.84ZM447.653 132.4V134.11C447.653 136.03 446.913 137.27 445.433 137.83C447.033 138.37 447.833 139.64 447.833 141.64V143.44C447.833 144.86 447.423 145.98 446.603 146.8C445.803 147.6 444.603 148 443.003 148H437.633V127.84H442.823C444.423 127.84 445.623 128.25 446.423 129.07C447.243 129.87 447.653 130.98 447.653 132.4ZM442.643 129.7H439.763V136.93H442.643C444.563 136.93 445.523 136.01 445.523 134.17V132.46C445.523 130.62 444.563 129.7 442.643 129.7ZM445.703 143.38V141.58C445.703 139.74 444.743 138.82 442.823 138.82H439.763V146.14H442.823C444.743 146.14 445.703 145.22 445.703 143.38ZM493.696 148H491.566V141.19L486.616 127.84H488.806L490.846 133.33C490.926 133.55 491.536 135.34 492.676 138.7C493.416 136.4 494.686 132.78 496.486 127.84H498.646L493.696 141.19V148ZM580.025 132.13C580.025 130.75 580.475 129.67 581.375 128.89C582.295 128.09 583.705 127.69 585.605 127.69C586.885 127.69 588.095 127.86 589.235 128.2V130.24C588.055 129.86 586.845 129.67 585.605 129.67C584.365 129.67 583.475 129.89 582.935 130.33C582.415 130.75 582.155 131.39 582.155 132.25V143.8C582.155 145.42 583.115 146.23 585.035 146.23C586.295 146.23 587.195 146.02 587.735 145.6V138.1H589.865V146.95C588.445 147.75 586.895 148.15 585.215 148.15C581.755 148.15 580.025 146.73 580.025 143.89V132.13ZM635.773 139.9H632.803V148H630.673V127.84H635.563C637.163 127.84 638.373 128.25 639.193 129.07C640.013 129.87 640.423 130.97 640.423 132.37V135.34C640.423 137.5 639.563 138.9 637.843 139.54L641.053 148H638.713L635.773 139.9ZM632.803 138.04H635.473C637.353 138.04 638.293 137.13 638.293 135.31V132.46C638.293 130.64 637.353 129.73 635.473 129.73H632.803V138.04ZM689.714 148L688.484 142.36H683.084L681.854 148H679.724L684.284 127.84H687.284L691.844 148H689.714ZM683.474 140.5H688.064L685.754 129.91L683.474 140.5ZM738.958 132.49C738.958 130.65 738.008 129.73 736.108 129.73H733.468V139.18H736.108C738.008 139.18 738.958 138.27 738.958 136.45V132.49ZM731.338 127.84H736.228C737.808 127.84 739.008 128.25 739.828 129.07C740.668 129.89 741.088 130.99 741.088 132.37V136.54C741.088 137.94 740.678 139.05 739.858 139.87C739.038 140.67 737.828 141.07 736.228 141.07H733.468V148H731.338V127.84ZM789.972 127.84H792.132V148H789.972V139.06H783.552V148H781.422V127.84H783.552V137.17H789.972V127.84ZM841.035 127.84H843.165V143.56C843.165 144.98 842.735 146.13 841.875 147.01C841.035 147.87 839.775 148.3 838.095 148.3C836.415 148.3 835.145 147.87 834.285 147.01C833.445 146.13 833.025 144.98 833.025 143.56V127.84H835.155V143.5C835.155 145.42 836.135 146.38 838.095 146.38C840.055 146.38 841.035 145.42 841.035 143.5V127.84ZM889.15 139.9H886.18V148H884.05V127.84H888.94C890.54 127.84 891.75 128.25 892.57 129.07C893.39 129.87 893.8 130.97 893.8 132.37V135.34C893.8 137.5 892.94 138.9 891.22 139.54L894.43 148H892.09L889.15 139.9ZM886.18 138.04H888.85C890.73 138.04 891.67 137.13 891.67 135.31V132.46C891.67 130.64 890.73 129.73 888.85 129.73H886.18V138.04ZM943.091 148L941.861 142.36H936.461L935.231 148H933.101L937.661 127.84H940.661L945.221 148H943.091ZM936.851 140.5H941.441L939.131 129.91L936.851 140.5Z" fill="black"/>
<defs>
<linearGradient id="paint0_linear_944_14526" x1="760.418" y1="10" x2="840.412" y2="101.775" gradientUnits="userSpaceOnUse">
<stop stop-color="#2FACB7"/>
<stop offset="0.2" stop-color="#C84076"/>
<stop offset="0.4" stop-color="#EB934E"/>
<stop offset="0.6" stop-color="#EC5E5E"/>
<stop offset="0.8" stop-color="#357FB1"/>
<stop offset="1" stop-color="#23324A"/>
</linearGradient>
<linearGradient id="paint1_linear_944_14526" x1="357.972" y1="10.0006" x2="408.821" y2="116.658" gradientUnits="userSpaceOnUse">
<stop stop-color="#2FACB7"/>
<stop offset="0.2" stop-color="#C84076"/>
<stop offset="0.4" stop-color="#EB934E"/>
<stop offset="0.6" stop-color="#EC5E5E"/>
<stop offset="0.8" stop-color="#357FB1"/>
<stop offset="1" stop-color="#23324A"/>
</linearGradient>
</defs>
</svg>
