<svg width="80" height="80" viewBox="0 0 80 80" fill="none" xmlns="http://www.w3.org/2000/svg">
                        <g clip-path="url(#clip0_432_255)">
                        <path d="M23.125 25.9377C19.679 25.9377 16.875 28.7417 16.875 32.1877C16.875 35.6338 19.679 38.4378 23.125 38.4378C26.5717 38.4378 29.3751 35.6338 29.3751 32.1877C29.3751 28.7417 26.5717 25.9377 23.125 25.9377ZM23.125 35.3128C21.402 35.3128 20 33.9108 20 32.1877C20 30.4647 21.402 29.0627 23.125 29.0627C24.8487 29.0627 26.2501 30.4647 26.2501 32.1877C26.2501 33.9108 24.8487 35.3128 23.125 35.3128Z" fill="blue"></path>
                        <path d="M46.5626 24.3752C46.5626 20.9291 43.7592 18.1251 40.3125 18.1251C36.8665 18.1251 34.0625 20.9291 34.0625 24.3752C34.0625 27.8213 36.8665 30.6252 40.3125 30.6252C43.7592 30.6252 46.5626 27.8213 46.5626 24.3752ZM37.1875 24.3752C37.1875 22.6522 38.5895 21.2502 40.3125 21.2502C42.0362 21.2502 43.4376 22.6522 43.4376 24.3752C43.4376 26.0982 42.0362 27.5002 40.3125 27.5002C38.5895 27.5002 37.1875 26.0982 37.1875 24.3752Z" fill="blue"></path>
                        <path d="M12.1875 50.9379C12.1875 54.384 14.9915 57.1879 18.4375 57.1879C21.8842 57.1879 24.6876 54.384 24.6876 50.9379C24.6876 47.4918 21.8842 44.6879 18.4375 44.6879C14.9915 44.6879 12.1875 47.4918 12.1875 50.9379ZM18.4375 47.8129C20.1612 47.8129 21.5626 49.2149 21.5626 50.9379C21.5626 52.6609 20.1612 54.0629 18.4375 54.0629C16.7145 54.0629 15.3125 52.6609 15.3125 50.9379C15.3125 49.2149 16.7145 47.8129 18.4375 47.8129Z" fill="blue"></path>
                        <path d="M26.25 63.438C26.25 66.8841 29.054 69.688 32.5 69.688C35.9467 69.688 38.7501 66.8841 38.7501 63.438C38.7501 59.9919 35.9467 57.188 32.5 57.188C29.054 57.188 26.25 59.9919 26.25 63.438ZM35.6251 63.438C35.6251 65.161 34.2237 66.563 32.5 66.563C30.777 66.563 29.375 65.161 29.375 63.438C29.375 61.715 30.777 60.313 32.5 60.313C34.2237 60.313 35.6251 61.715 35.6251 63.438Z" fill="blue"></path>
                        <path d="M68.4832 14.8597C68.4832 11.1421 63.0742 2.43288 61.9896 0.725103C61.7028 0.27344 61.2053 0 60.6707 0C60.1354 0 59.6379 0.27344 59.3517 0.725103C58.4038 2.21742 54.1563 9.05342 53.0974 13.2356C43.2767 9.20112 33.0404 9.31099 24.0517 13.5951C15.1143 17.8548 7.90657 26.141 5.35284 36.5732C5.14715 37.4118 5.66046 38.2571 6.49848 38.4622C6.6236 38.4927 6.74873 38.5074 6.87141 38.5074C7.57454 38.5074 8.21358 38.0295 8.38814 37.316C10.608 28.2473 16.9667 20.4335 25.3963 16.4155C33.92 12.3536 43.7137 12.4336 53.0595 16.6206C53.5496 18.7416 54.9126 20.5629 56.7876 21.6384C55.8678 24.9862 55.1512 30.0674 54.7441 36.1929C54.5787 38.6795 54.467 41.3193 54.4121 44.0525C48.4788 47.457 44.5713 53.9354 45.0608 61.6728C45.2463 64.5965 45.5265 69.0148 40.9232 73.0273C37.6352 75.8941 32.7957 76.6821 28.2943 75.0842C17.1211 71.1187 9.03817 60.9569 7.70088 49.1953C7.60384 48.3378 6.82807 47.7225 5.97235 47.819C5.1148 47.9166 4.49895 48.6906 4.596 49.5481C6.09626 62.7471 15.0758 73.7085 27.2494 78.0292C32.8146 80.0049 38.8407 78.9887 42.977 75.3827C48.7425 70.3564 48.3763 64.5788 48.1791 61.4745C47.8147 55.7084 50.3276 50.8305 54.3748 47.8062V47.8123C54.3748 55.2128 54.9419 69.7155 57.3271 76.4776C57.6665 77.4408 58.5692 80 60.6249 80C62.6812 80 63.5839 77.4408 63.9233 76.4776C66.2939 69.7576 66.8749 55.3618 66.8749 47.8123C66.8749 46.7399 66.8658 45.6846 66.8481 44.6549C67.3303 44.6482 67.8192 44.6476 68.3142 44.6555C71.2732 44.6988 73.9612 42.8983 75.0092 40.1706C77.8809 32.6901 72.5433 25.2388 66.2475 20.3304C67.6599 18.8911 68.4832 16.9368 68.4832 14.8597ZM60.6707 4.55814C62.9247 8.37409 65.3582 13.1404 65.3582 14.8597C65.3582 17.5728 63.1042 19.6071 60.5724 19.5503C58.0541 19.4936 55.9831 17.4385 55.9831 14.8597C55.9831 13.1404 58.416 8.37409 60.6707 4.55814ZM60.6707 22.6723C60.9465 22.6723 61.2212 22.6564 61.4928 22.6277C62.2582 25.4891 62.8918 29.8501 63.2867 35.0027C61.5288 35.2285 59.7222 35.2243 57.9637 34.9911C58.3586 29.8391 58.9934 25.4799 59.76 22.6186C60.0609 22.654 60.3649 22.6723 60.6707 22.6723ZM60.6249 76.2994C58.1005 70.8996 57.4999 54.636 57.4999 47.8129C57.4999 46.9401 57.52 45.0181 57.5206 45.0132C57.5566 42.6334 57.6372 40.3226 57.7587 38.1168C58.7218 38.2364 59.6959 38.2968 60.6707 38.2968C61.6155 38.2968 62.5597 38.24 63.493 38.1271C63.5839 39.7916 63.651 41.5012 63.6932 43.2315C63.731 44.6976 63.7499 46.2388 63.7499 47.8129C63.7499 54.8491 63.1145 70.9753 60.6249 76.2994ZM72.0917 39.0506C71.5118 40.5594 70.0116 41.5592 68.363 41.5317C67.8265 41.5232 67.2943 41.5232 66.77 41.5311C66.7095 39.7195 66.6216 37.9361 66.5075 36.2112C66.5069 36.2008 66.5051 36.1905 66.5038 36.1801C66.1566 30.9512 65.5828 26.484 64.851 23.2088C71.1749 28.3272 73.9337 34.2526 72.0917 39.0506Z" fill="blue"></path>
                        <path d="M7.50002 43.1253C7.50002 43.9884 6.80056 44.6878 5.93751 44.6878C5.07508 44.6878 4.375 43.9884 4.375 43.1253C4.375 42.2623 5.07508 41.5628 5.93751 41.5628C6.80056 41.5628 7.50002 42.2623 7.50002 43.1253Z" fill="blue"></path>
                        </g>
                        <defs>
                        <clipPath id="clip0_432_255">
                        <rect width="80" height="80" fill="blue"></rect>
                        </clipPath>
                        </defs>
                     </svg>