<svg width="80" height="80" viewBox="0 0 80 80" fill="none" xmlns="http://www.w3.org/2000/svg">
                        <path d="M49.2449 57.1008L33.9512 48.2602C33.7136 48.123 33.4442 48.0508 33.1699 48.0508C32.8957 48.0508 32.6262 48.123 32.3887 48.2601C32.1512 48.3973 31.9539 48.5945 31.8168 48.832C31.6796 49.0696 31.6074 49.339 31.6074 49.6133V67.293C31.6074 67.5672 31.6796 67.8367 31.8168 68.0742C31.9539 68.3117 32.1512 68.509 32.3887 68.6461C32.6262 68.7832 32.8957 68.8554 33.1699 68.8554C33.4442 68.8554 33.7136 68.7832 33.9512 68.6461L49.2449 59.8055C49.4821 59.6682 49.679 59.471 49.8158 59.2337C49.9527 58.9963 50.0248 58.7271 50.0248 58.4531C50.0248 58.1791 49.9527 57.91 49.8158 57.6726C49.679 57.4352 49.4821 57.238 49.2449 57.1008ZM34.7324 64.5852V52.3211L45.3402 58.4539L34.7324 64.5852Z" fill="#2F57EF"></path>
                        <path d="M75.3129 24.7117H21.0317L74.4895 15.2742C75.7132 15.0581 76.8011 14.365 77.514 13.3471C78.2268 12.3293 78.5063 11.07 78.2911 9.8461L77.252 3.93672C76.8661 1.4461 74.2926 -0.355466 71.8207 0.135159L3.87387 12.1289C2.65078 12.345 1.56345 13.0377 0.850674 14.0549C0.137899 15.072 -0.142048 16.3305 0.0723119 17.5539L1.63481 26.4055V75.2586C1.63481 76.5018 2.12867 77.6941 3.00775 78.5732C3.88683 79.4522 5.07911 79.9461 6.32231 79.9461H75.3129C76.5561 79.9461 77.7484 79.4522 78.6275 78.5732C79.5066 77.6941 80.0004 76.5018 80.0004 75.2586V29.3992C80.0004 28.156 79.5066 26.9637 78.6275 26.0847C77.7484 25.2056 76.5561 24.7117 75.3129 24.7117ZM76.8754 29.3992V36.9602H64.7676L68.0848 27.8367H75.3129C75.7273 27.8367 76.1248 28.0013 76.4178 28.2944C76.7108 28.5874 76.8754 28.9848 76.8754 29.3992ZM4.75669 36.9602V27.8367H20.5489L17.2317 36.9602H4.75669ZM23.8739 27.8367H35.2801L31.9676 36.9602H20.5614L23.8739 27.8367ZM38.6098 27.8367H50.0161L46.7051 36.9602H35.2989L38.6098 27.8367ZM53.3473 27.8367H64.7536L61.4426 36.9602H50.0364L53.3473 27.8367ZM48.5629 16.6773L37.9379 18.5523L34.5004 9.89766L45.1333 8.02266L48.5629 16.6773ZM48.2754 7.4586L59.1739 5.5336L62.6114 14.193L51.7114 16.1164L48.2754 7.4586ZM34.7895 19.1164L24.1645 20.9914L20.727 12.332L31.352 10.457L34.7895 19.1164ZM72.3629 3.21172C72.4538 3.19624 72.5458 3.1884 72.6379 3.18828C73.0047 3.18892 73.3596 3.31858 73.6404 3.55454C73.9212 3.79049 74.1101 4.11772 74.1739 4.47891L75.2145 10.3867C75.2503 10.5888 75.2458 10.796 75.2015 10.9964C75.1572 11.1968 75.0738 11.3866 74.9561 11.5547C74.8384 11.7229 74.6888 11.8662 74.5157 11.9766C74.3426 12.0869 74.1495 12.162 73.9473 12.1977L65.7473 13.6477L62.3098 4.98828L72.3629 3.21172ZM4.41606 15.2102L17.5864 12.882L21.0239 21.5414L4.46137 24.4633L3.14887 17.0164C3.07803 16.6089 3.17163 16.19 3.40917 15.8514C3.6467 15.5128 4.00879 15.2822 4.41606 15.2102ZM75.3129 76.8211H6.31919C5.90479 76.8211 5.50736 76.6565 5.21433 76.3634C4.92131 76.0704 4.75669 75.673 4.75669 75.2586V40.0852H76.8754V75.2586C76.8754 75.673 76.7108 76.0704 76.4178 76.3634C76.1248 76.6565 75.7273 76.8211 75.3129 76.8211Z" fill="#2F57EF"></path>
                        <path d="M11.6672 31.293C11.458 31.0837 11.1936 30.9382 10.9048 30.8734C10.6161 30.8086 10.3149 30.8271 10.0362 30.9267C9.7576 31.0264 9.51299 31.2032 9.33088 31.4364C9.14877 31.6697 9.03665 31.9499 9.00757 32.2444C8.97848 32.5389 9.03362 32.8356 9.16658 33.0999C9.29954 33.3643 9.50484 33.5855 9.7586 33.7378C10.0124 33.89 10.3041 33.9671 10.6 33.96C10.8958 33.9529 11.1836 33.8619 11.4297 33.6977C11.62 33.5678 11.7794 33.3977 11.8968 33.1996C12.0143 33.0014 12.0869 32.78 12.1095 32.5507C12.1321 32.3215 12.1043 32.0901 12.0279 31.8728C11.9515 31.6555 11.8284 31.4576 11.6672 31.293Z" fill="#2F57EF"></path>
                        <path d="M7.94559 19.5586C7.98454 19.6529 8.03214 19.7434 8.08778 19.8289C8.21733 20.0196 8.3872 20.1794 8.58536 20.2972C8.78352 20.415 9.00514 20.4878 9.23454 20.5104C9.46394 20.5331 9.69551 20.505 9.91288 20.4283C10.1303 20.3516 10.3281 20.228 10.4925 20.0664C11.5722 18.9727 10.5925 17.1383 9.08621 17.4289C8.86025 17.4751 8.64723 17.5704 8.46228 17.7082C8.27733 17.846 8.125 18.0228 8.01612 18.2261C7.90723 18.4294 7.84446 18.6542 7.83227 18.8845C7.82008 19.1148 7.85877 19.3449 7.94559 19.5586Z" fill="#2F57EF"></path>
                     </svg>